<?xml version="1.0" encoding="UTF-8"?>
<!DOCTYPE svg PUBLIC "-//W3C//DTD SVG 1.1//EN" "http://www.w3.org/Graphics/SVG/1.1/DTD/svg11.dtd">
<svg version="1.1" xmlns="http://www.w3.org/2000/svg" xmlns:xlink="http://www.w3.org/1999/xlink" x="0" y="0" width="185" height="223.666" viewBox="0, 0, 185, 223.666">
  <g id="Background">
    <rect x="0" y="0" width="185" height="223.666" fill="#000000" fill-opacity="0"/>
  </g>
  <g id="Background"/>
  <g id="Layer_2">
    <path d="M42.16,92.544 C42.16,111.988 53.46,128.791 69.845,136.754 L46.413,72.553 C43.687,78.662 42.16,85.423 42.16,92.544 z" fill="#333333"/>
    <path d="M124.444,90.065 C124.444,83.994 122.263,79.79 120.393,76.518 C117.903,72.471 115.569,69.045 115.569,64.998 C115.569,60.483 118.993,56.279 123.818,56.279 C124.035,56.279 124.242,56.306 124.453,56.319 C115.715,48.312 104.071,43.423 91.283,43.423 C74.12,43.423 59.023,52.228 50.24,65.565 C51.392,65.599 52.478,65.624 53.401,65.624 C58.539,65.624 66.492,65 66.492,65 C69.14,64.844 69.452,68.733 66.807,69.047 C66.807,69.047 64.146,69.36 61.185,69.515 L79.073,122.723 L89.824,90.482 L82.17,69.513 C79.525,69.358 77.019,69.045 77.019,69.045 C74.372,68.889 74.682,64.842 77.328,64.998 C77.328,64.998 85.442,65.622 90.268,65.622 C95.406,65.622 103.36,64.998 103.36,64.998 C106.009,64.842 106.321,68.732 103.674,69.045 C103.674,69.045 101.007,69.358 98.053,69.513 L115.805,122.318 L120.703,105.945 C122.827,99.151 124.444,94.271 124.444,90.065 z" fill="#333333"/>
    <path d="M92.144,96.841 L77.406,139.668 C81.807,140.962 86.46,141.669 91.283,141.669 C97.003,141.669 102.489,140.681 107.594,138.885 C107.463,138.675 107.343,138.451 107.245,138.208 L92.144,96.841 z" fill="#333333"/>
    <path d="M134.385,68.976 C134.596,70.541 134.717,72.221 134.717,74.028 C134.717,79.012 133.785,84.616 130.98,91.622 L115.977,135.005 C130.579,126.489 140.402,110.667 140.402,92.545 C140.404,84.005 138.223,75.974 134.385,68.976 z" fill="#333333"/>
    <path d="M91.283,35.284 C59.708,35.284 34.021,60.971 34.021,92.544 C34.021,124.121 59.708,149.807 91.283,149.807 C122.854,149.807 148.546,124.121 148.546,92.544 C148.546,60.971 122.854,35.284 91.283,35.284 z M91.283,147.182 C61.157,147.182 36.646,122.672 36.646,92.544 C36.646,62.419 61.156,37.91 91.283,37.91 C121.407,37.91 145.915,62.419 145.915,92.544 C145.915,122.672 121.407,147.182 91.283,147.182 z" fill="#333333"/>
    <text transform="matrix(1, 0, 0, 1, 31.47, 177.488)"/>
    <path d="M84.125,171.436 L75.458,171.436 L75.458,172.356 C78.169,172.356 78.605,172.937 78.605,176.375 L78.605,182.572 C78.605,186.01 78.169,186.639 75.458,186.639 C73.377,186.349 71.972,185.235 70.035,183.105 L67.808,180.684 C70.81,180.151 72.407,178.263 72.407,176.132 C72.407,173.47 70.132,171.436 65.871,171.436 L57.35,171.436 L57.35,172.356 C60.061,172.356 60.497,172.937 60.497,176.375 L60.497,182.572 C60.497,186.01 60.061,186.639 57.35,186.639 L57.35,187.559 L66.985,187.559 L66.985,186.639 C64.274,186.639 63.838,186.01 63.838,182.572 L63.838,180.83 L64.661,180.83 L70.035,187.559 L84.125,187.559 C91.048,187.559 94.05,183.88 94.05,179.473 C94.05,175.067 91.048,171.436 84.125,171.436 z M63.839,179.328 L63.839,172.889 L65.823,172.889 C68.002,172.889 68.97,174.39 68.97,176.133 C68.97,177.828 68.002,179.328 65.823,179.328 L63.839,179.328 z M84.27,186.058 L83.931,186.058 C82.188,186.058 81.946,185.623 81.946,183.395 L81.946,172.889 C81.946,172.889 84.077,172.889 84.27,172.889 C89.305,172.889 90.225,176.568 90.225,179.425 C90.225,182.378 89.305,186.058 84.27,186.058 z" fill="#00749A"/>
    <path d="M30.384,181.12 L33.724,171.242 C34.693,168.386 34.257,167.563 31.159,167.563 L31.159,166.594 L40.261,166.594 L40.261,167.563 C37.211,167.563 36.485,168.289 35.274,171.824 L29.754,188.382 L29.125,188.382 L24.186,173.227 L19.151,188.382 L18.522,188.382 L13.148,171.824 C11.986,168.289 11.211,167.563 8.403,167.563 L8.403,166.594 L19.151,166.594 L19.151,167.563 C16.294,167.563 15.519,168.241 16.537,171.242 L19.78,181.12 L24.67,166.594 L25.591,166.594 L30.384,181.12 z" fill="#00749A"/>
    <path d="M46.844,188.188 C41.519,188.188 37.161,184.267 37.161,179.473 C37.161,174.728 41.519,170.806 46.844,170.806 C52.17,170.806 56.528,174.728 56.528,179.473 C56.528,184.267 52.17,188.188 46.844,188.188 z M46.844,172.308 C42.391,172.308 40.841,176.326 40.841,179.473 C40.841,182.669 42.391,186.639 46.844,186.639 C51.348,186.639 52.897,182.669 52.897,179.473 C52.897,176.326 51.348,172.308 46.844,172.308 z" fill="#00749A"/>
    <path d="M106.008,186.591 L106.008,187.559 L94.921,187.559 L94.921,186.591 C98.165,186.591 98.746,185.768 98.746,180.925 L98.746,173.179 C98.746,168.337 98.165,167.563 94.921,167.563 L94.921,166.594 L104.943,166.594 C109.929,166.594 112.69,169.16 112.69,172.598 C112.69,175.939 109.929,178.553 104.943,178.553 L102.183,178.553 L102.183,180.925 C102.183,185.768 102.764,186.591 106.008,186.591 z M104.943,168.337 L102.183,168.337 L102.183,176.762 L104.943,176.762 C107.654,176.762 108.913,174.874 108.913,172.598 C108.913,170.274 107.654,168.337 104.943,168.337 z" fill="#333333"/>
    <path d="M145.951,183.008 L145.709,183.879 C145.273,185.477 144.74,186.058 141.303,186.058 L140.625,186.058 C138.107,186.058 137.672,185.477 137.672,182.04 L137.672,179.813 C141.448,179.813 141.739,180.151 141.739,182.669 L142.659,182.669 L142.659,175.455 L141.739,175.455 C141.739,177.972 141.448,178.311 137.672,178.311 L137.672,172.889 L140.334,172.889 C143.772,172.889 144.304,173.47 144.74,175.068 L144.983,175.987 L145.757,175.987 L145.418,171.436 L131.184,171.436 L131.184,172.356 C133.895,172.356 134.331,172.937 134.331,176.375 L134.331,182.572 C134.331,185.717 133.961,186.509 131.823,186.622 C129.791,186.312 128.397,185.203 126.488,183.105 L124.261,180.684 C127.263,180.151 128.861,178.263 128.861,176.132 C128.861,173.47 126.585,171.436 122.325,171.436 L113.803,171.436 L113.803,172.356 C116.514,172.356 116.95,172.937 116.95,176.375 L116.95,182.572 C116.95,186.01 116.515,186.639 113.803,186.639 L113.803,187.559 L123.438,187.559 L123.438,186.639 C120.728,186.639 120.291,186.01 120.291,182.572 L120.291,180.83 L121.114,180.83 L126.489,187.559 L146.387,187.559 L146.678,183.008 L145.951,183.008 z M120.291,179.328 L120.291,172.889 L122.276,172.889 C124.454,172.889 125.423,174.39 125.423,176.133 C125.423,177.828 124.454,179.328 122.276,179.328 L120.291,179.328 z" fill="#333333"/>
    <path d="M155.779,188.188 C153.843,188.188 152.148,187.172 151.422,186.542 C151.179,186.784 150.744,187.51 150.647,188.188 L149.727,188.188 L149.727,181.507 L150.695,181.507 C151.083,184.702 153.31,186.591 156.167,186.591 C157.716,186.591 158.975,185.719 158.975,184.267 C158.975,183.008 157.861,182.04 155.876,181.12 L153.116,179.813 C151.179,178.892 149.727,177.294 149.727,175.164 C149.727,172.841 151.906,170.856 154.908,170.856 C156.506,170.856 157.861,171.437 158.685,172.114 C158.926,171.921 159.168,171.388 159.314,170.806 L160.234,170.806 L160.234,176.52 L159.217,176.52 C158.878,174.244 157.619,172.356 155.053,172.356 C153.698,172.356 152.438,173.131 152.438,174.342 C152.438,175.6 153.455,176.278 155.78,177.343 L158.442,178.65 C160.766,179.764 161.686,181.556 161.686,183.008 C161.686,186.058 159.023,188.188 155.779,188.188 z" fill="#333333"/>
    <path d="M170.691,188.188 C168.754,188.188 167.059,187.172 166.334,186.542 C166.091,186.784 165.656,187.51 165.559,188.188 L164.639,188.188 L164.639,181.507 L165.607,181.507 C165.995,184.702 168.222,186.591 171.078,186.591 C172.628,186.591 173.887,185.719 173.887,184.267 C173.887,183.008 172.773,182.04 170.788,181.12 L168.028,179.813 C166.091,178.892 164.639,177.294 164.639,175.164 C164.639,172.841 166.818,170.856 169.819,170.856 C171.417,170.856 172.773,171.437 173.596,172.114 C173.838,171.921 174.08,171.388 174.225,170.806 L175.145,170.806 L175.145,176.52 L174.129,176.52 C173.789,174.244 172.531,172.356 169.965,172.356 C168.609,172.356 167.35,173.131 167.35,174.342 C167.35,175.6 168.367,176.278 170.691,177.343 L173.354,178.65 C175.678,179.764 176.597,181.556 176.597,183.008 C176.597,186.058 173.934,188.188 170.691,188.188 z" fill="#333333"/>
  </g>
</svg>
