<?xml version="1.0" encoding="UTF-8"?>
<!DOCTYPE svg PUBLIC "-//W3C//DTD SVG 1.1//EN" "http://www.w3.org/Graphics/SVG/1.1/DTD/svg11.dtd">
<svg version="1.1" xmlns="http://www.w3.org/2000/svg" xmlns:xlink="http://www.w3.org/1999/xlink" x="0" y="0" width="185" height="223.666" viewBox="0, 0, 185, 223.666">
  <g id="Background">
    <rect x="0" y="0" width="185" height="223.666" fill="#FFFFFF"/>
  </g>
  <g id="Background"/>
  <g id="Layer_1">
    <path d="M15.541,127.313 L15.541,109.871 L37.318,109.871 L37.318,108.851 L15.541,108.851 L15.541,92.939 L38.695,92.939 L38.695,91.919 L14.521,91.919 L14.521,128.333 L38.899,128.333 L38.899,127.313 z" fill="#505050"/>
    <path d="M58.534,102.119 L49.507,114.002 L40.684,102.119 L39.358,102.119 L48.895,114.767 L38.44,128.333 L39.664,128.333 L49.507,115.532 L59.401,128.333 L60.676,128.333 L50.17,114.767 L59.758,102.119 z" fill="#505050"/>
    <path d="M63.736,137.309 L63.736,120.989 L63.838,120.989 Q64.756,124.559 67.459,126.727 Q70.162,128.894 74.344,128.894 Q77.047,128.894 79.138,127.798 Q81.229,126.701 82.632,124.814 Q84.034,122.927 84.773,120.428 Q85.513,117.929 85.513,115.175 Q85.513,112.217 84.748,109.718 Q83.983,107.219 82.529,105.383 Q81.076,103.547 79.01,102.527 Q76.945,101.507 74.344,101.507 Q72.355,101.507 70.646,102.094 Q68.938,102.68 67.612,103.751 Q66.286,104.822 65.317,106.276 Q64.348,107.729 63.838,109.463 L63.736,109.463 L63.736,102.119 L62.716,102.119 L62.716,137.309 z M74.344,127.925 Q69.55,127.925 66.643,124.636 Q63.736,121.346 63.736,115.175 Q63.736,112.625 64.45,110.33 Q65.164,108.035 66.515,106.301 Q67.867,104.567 69.856,103.547 Q71.845,102.527 74.344,102.527 Q76.894,102.527 78.806,103.547 Q80.719,104.567 81.968,106.326 Q83.218,108.086 83.855,110.355 Q84.493,112.625 84.493,115.175 Q84.493,117.47 83.907,119.74 Q83.32,122.009 82.096,123.82 Q80.872,125.63 78.959,126.778 Q77.047,127.925 74.344,127.925 z" fill="#505050"/>
    <path d="M91.123,128.333 L91.123,113.492 Q91.123,111.35 91.735,109.31 Q92.347,107.27 93.622,105.715 Q94.897,104.159 96.86,103.267 Q98.824,102.374 101.527,102.527 L101.527,101.507 Q99.181,101.456 97.422,102.017 Q95.662,102.578 94.387,103.547 Q93.112,104.516 92.347,105.816 Q91.582,107.117 91.225,108.596 L91.123,108.596 L91.123,102.119 L90.103,102.119 L90.103,128.333 z" fill="#505050"/>
    <path d="M102.802,115.43 L124.732,115.43 Q124.834,112.727 124.197,110.228 Q123.559,107.729 122.157,105.791 Q120.754,103.853 118.535,102.68 Q116.317,101.507 113.257,101.507 Q111.064,101.507 108.973,102.425 Q106.882,103.343 105.301,105.103 Q103.72,106.862 102.751,109.412 Q101.782,111.962 101.782,115.226 Q101.782,118.133 102.445,120.658 Q103.108,123.182 104.485,125.044 Q105.862,126.905 108.03,127.925 Q110.197,128.945 113.257,128.894 Q117.745,128.894 120.805,126.369 Q123.865,123.845 124.426,119.255 L123.406,119.255 Q122.743,123.59 120.015,125.757 Q117.286,127.925 113.155,127.925 Q110.35,127.925 108.412,126.956 Q106.474,125.987 105.25,124.304 Q104.026,122.621 103.439,120.352 Q102.853,118.082 102.802,115.43 z M123.712,114.41 L102.802,114.41 Q102.955,111.656 103.822,109.463 Q104.689,107.27 106.091,105.715 Q107.494,104.159 109.355,103.343 Q111.217,102.527 113.359,102.527 Q115.909,102.527 117.847,103.471 Q119.785,104.414 121.086,106.046 Q122.386,107.678 123.049,109.846 Q123.712,112.013 123.712,114.41 z" fill="#505050"/>
    <path d="M145.897,109.871 L146.917,109.871 Q146.917,105.485 144.367,103.496 Q141.817,101.507 137.431,101.507 Q134.983,101.507 133.3,102.119 Q131.617,102.731 130.546,103.7 Q129.475,104.669 129.016,105.842 Q128.557,107.015 128.557,108.086 Q128.557,110.228 129.322,111.503 Q130.087,112.778 131.719,113.492 Q132.841,114.002 134.269,114.41 Q135.697,114.818 137.584,115.277 Q139.267,115.685 140.899,116.093 Q142.531,116.501 143.781,117.189 Q145.03,117.878 145.82,118.949 Q146.611,120.02 146.611,121.754 Q146.611,123.437 145.82,124.61 Q145.03,125.783 143.806,126.522 Q142.582,127.262 141.077,127.593 Q139.573,127.925 138.145,127.925 Q133.504,127.925 131.031,125.859 Q128.557,123.794 128.557,119.357 L127.537,119.357 Q127.537,124.304 130.214,126.599 Q132.892,128.894 138.145,128.894 Q139.828,128.894 141.536,128.512 Q143.245,128.129 144.596,127.262 Q145.948,126.395 146.79,125.018 Q147.631,123.641 147.631,121.652 Q147.631,119.765 146.891,118.592 Q146.152,117.419 144.954,116.654 Q143.755,115.889 142.251,115.455 Q140.746,115.022 139.216,114.614 Q137.074,114.053 135.467,113.645 Q133.861,113.237 132.484,112.676 Q131.158,112.115 130.368,111.069 Q129.577,110.024 129.577,108.086 Q129.577,107.729 129.781,106.811 Q129.985,105.893 130.75,104.95 Q131.515,104.006 133.096,103.267 Q134.677,102.527 137.431,102.527 Q139.318,102.527 140.874,102.935 Q142.429,103.343 143.551,104.235 Q144.673,105.128 145.285,106.505 Q145.897,107.882 145.897,109.871 z" fill="#505050"/>
    <path d="M169.51,109.871 L170.53,109.871 Q170.53,105.485 167.98,103.496 Q165.43,101.507 161.044,101.507 Q158.596,101.507 156.913,102.119 Q155.23,102.731 154.159,103.7 Q153.088,104.669 152.629,105.842 Q152.17,107.015 152.17,108.086 Q152.17,110.228 152.935,111.503 Q153.7,112.778 155.332,113.492 Q156.454,114.002 157.882,114.41 Q159.31,114.818 161.197,115.277 Q162.88,115.685 164.512,116.093 Q166.144,116.501 167.393,117.189 Q168.643,117.878 169.433,118.949 Q170.224,120.02 170.224,121.754 Q170.224,123.437 169.433,124.61 Q168.643,125.783 167.419,126.522 Q166.195,127.262 164.69,127.593 Q163.186,127.925 161.758,127.925 Q157.117,127.925 154.643,125.859 Q152.17,123.794 152.17,119.357 L151.15,119.357 Q151.15,124.304 153.827,126.599 Q156.505,128.894 161.758,128.894 Q163.441,128.894 165.149,128.512 Q166.858,128.129 168.209,127.262 Q169.561,126.395 170.402,125.018 Q171.244,123.641 171.244,121.652 Q171.244,119.765 170.505,118.592 Q169.765,117.419 168.566,116.654 Q167.368,115.889 165.863,115.455 Q164.359,115.022 162.829,114.614 Q160.687,114.053 159.08,113.645 Q157.474,113.237 156.097,112.676 Q154.771,112.115 153.98,111.069 Q153.19,110.024 153.19,108.086 Q153.19,107.729 153.394,106.811 Q153.598,105.893 154.363,104.95 Q155.128,104.006 156.709,103.267 Q158.29,102.527 161.044,102.527 Q162.931,102.527 164.486,102.935 Q166.042,103.343 167.164,104.235 Q168.286,105.128 168.898,106.505 Q169.51,107.882 169.51,109.871 z" fill="#505050"/>
  </g>
</svg>
