<?xml version="1.0" encoding="UTF-8"?>
<!DOCTYPE svg PUBLIC "-//W3C//DTD SVG 1.1//EN" "http://www.w3.org/Graphics/SVG/1.1/DTD/svg11.dtd">
<svg version="1.1" xmlns="http://www.w3.org/2000/svg" xmlns:xlink="http://www.w3.org/1999/xlink" x="0" y="0" width="185" height="223.666" viewBox="0, 0, 185, 223.666">
  <g id="Background">
    <rect x="0" y="0" width="185" height="223.666" fill="#000000" fill-opacity="0"/>
  </g>
  <defs>
    <clipPath id="Clip_1">
      <path d="M-7.417,11.916 L192.417,11.916 L192.417,211.75 L-7.417,211.75 L-7.417,11.916 z"/>
    </clipPath>
    <linearGradient id="Gradient_1" gradientUnits="userSpaceOnUse" x1="-0.769" y1="2.897" x2="-0.502" y2="2.897" gradientTransform="matrix(-47.581, 97.065, -97.065, -47.581, 323.377, 305.893)">
      <stop offset="0" stop-color="#687E67"/>
      <stop offset="0.529" stop-color="#687E67"/>
      <stop offset="1" stop-color="#83A178"/>
    </linearGradient>
    <linearGradient id="Gradient_2" gradientUnits="userSpaceOnUse" x1="-0.187" y1="-2.008" x2="0.08" y2="-2.008" gradientTransform="matrix(133.509, -98.644, 98.644, 133.509, 293.947, 356.692)">
      <stop offset="0" stop-color="#687E67"/>
      <stop offset="0.138" stop-color="#687E67"/>
      <stop offset="0.697" stop-color="#9BB48F"/>
      <stop offset="0.908" stop-color="#9BB48F"/>
      <stop offset="1" stop-color="#9BB48F"/>
    </linearGradient>
    <linearGradient id="Gradient_3" gradientUnits="userSpaceOnUse" x1="-1.513" y1="-1.542" x2="-1.247" y2="-1.542" gradientTransform="matrix(121.771, 0, 0, 121.771, 241.078, 272.293)">
      <stop offset="0" stop-color="#9BB48F"/>
      <stop offset="0.092" stop-color="#9BB48F"/>
      <stop offset="0.303" stop-color="#9BB48F"/>
      <stop offset="0.862" stop-color="#687E67"/>
      <stop offset="1" stop-color="#687E67"/>
    </linearGradient>
    <clipPath id="Clip_2">
      <path d="M72.194,87.389 L58.161,95.487 C57.637,95.79 57.314,96.349 57.314,96.955 L57.314,113.164 C57.314,113.769 57.637,114.328 58.161,114.632 L72.194,122.736 C72.719,123.039 73.365,123.039 73.889,122.736 L87.919,114.632 C88.443,114.328 88.766,113.769 88.766,113.164 L88.766,96.954 C88.766,96.349 88.443,95.79 87.918,95.487 L73.889,87.389 C73.627,87.238 73.334,87.162 73.042,87.162 C72.749,87.162 72.456,87.238 72.194,87.389"/>
    </clipPath>
    <linearGradient id="Gradient_4" gradientUnits="userSpaceOnUse" x1="-1.513" y1="-2.008" x2="-1.247" y2="-2.008" gradientTransform="matrix(121.771, 0, 0, 121.771, 241.078, 349.564)">
      <stop offset="0" stop-color="#9BB48F"/>
      <stop offset="0.092" stop-color="#9BB48F"/>
      <stop offset="0.303" stop-color="#9BB48F"/>
      <stop offset="0.862" stop-color="#687E67"/>
      <stop offset="1" stop-color="#687E67"/>
    </linearGradient>
    <linearGradient id="Gradient_5" gradientUnits="userSpaceOnUse" x1="-1.513" y1="-2.217" x2="-1.247" y2="-2.217" gradientTransform="matrix(121.771, 0, 0, 121.771, 241.078, 384.328)">
      <stop offset="0" stop-color="#9BB48F"/>
      <stop offset="0.092" stop-color="#9BB48F"/>
      <stop offset="0.303" stop-color="#9BB48F"/>
      <stop offset="0.862" stop-color="#687E67"/>
      <stop offset="1" stop-color="#687E67"/>
    </linearGradient>
    <clipPath id="Clip_3">
      <path d="M72.194,87.389 L58.161,95.487 C57.637,95.79 57.314,96.349 57.314,96.955 L57.314,113.164 C57.314,113.769 57.637,114.328 58.161,114.632 L72.194,122.736 C72.719,123.039 73.365,123.039 73.889,122.736 L87.919,114.632 C88.443,114.328 88.766,113.769 88.766,113.164 L88.766,96.954 C88.766,96.349 88.443,95.79 87.918,95.487 L73.889,87.389 C73.627,87.238 73.334,87.162 73.042,87.162 C72.749,87.162 72.456,87.238 72.194,87.389"/>
    </clipPath>
    <linearGradient id="Gradient_6" gradientUnits="userSpaceOnUse" x1="-1.513" y1="-2.312" x2="-1.247" y2="-2.312" gradientTransform="matrix(121.771, 0, 0, 121.771, 241.078, 400.04)">
      <stop offset="0" stop-color="#9BB48F"/>
      <stop offset="0.092" stop-color="#9BB48F"/>
      <stop offset="0.303" stop-color="#9BB48F"/>
      <stop offset="0.862" stop-color="#687E67"/>
      <stop offset="1" stop-color="#687E67"/>
    </linearGradient>
    <clipPath id="Clip_4">
      <path d="M72.194,87.389 L58.161,95.487 C57.637,95.79 57.314,96.349 57.314,96.955 L57.314,113.164 C57.314,113.769 57.637,114.328 58.161,114.632 L72.194,122.736 C72.719,123.039 73.365,123.039 73.889,122.736 L87.919,114.632 C88.443,114.328 88.766,113.769 88.766,113.164 L88.766,96.954 C88.766,96.349 88.443,95.79 87.918,95.487 L73.889,87.389 C73.627,87.238 73.334,87.162 73.042,87.162 C72.749,87.162 72.456,87.238 72.194,87.389"/>
    </clipPath>
    <linearGradient id="Gradient_7" gradientUnits="userSpaceOnUse" x1="-0.368" y1="2.051" x2="-0.101" y2="2.051" gradientTransform="matrix(-75.101, 153.206, -153.206, -75.101, 380.59, 303.015)">
      <stop offset="0" stop-color="#687E67"/>
      <stop offset="0.529" stop-color="#687E67"/>
      <stop offset="1" stop-color="#83A178"/>
    </linearGradient>
    <clipPath id="Clip_5">
      <path d="M72.194,87.389 L58.161,95.487 C57.637,95.79 57.314,96.349 57.314,96.955 L57.314,113.164 C57.314,113.769 57.637,114.328 58.161,114.632 L72.194,122.736 C72.719,123.039 73.365,123.039 73.889,122.736 L87.919,114.632 C88.443,114.328 88.766,113.769 88.766,113.164 L88.766,96.954 C88.766,96.349 88.443,95.79 87.918,95.487 L73.889,87.389 C73.627,87.238 73.334,87.162 73.042,87.162 C72.749,87.162 72.456,87.238 72.194,87.389"/>
    </clipPath>
  </defs>
  <g id="NodeJS_New_Pantone">
    <g clip-path="url(#Clip_1)" id="g3367">
      <path d="M91.485,156.777 C90.999,156.777 90.515,156.65 90.09,156.404 L85.647,153.775 C84.984,153.404 85.308,153.272 85.527,153.196 C86.412,152.889 86.591,152.818 87.536,152.283 C87.634,152.227 87.764,152.248 87.866,152.308 L91.279,154.334 C91.402,154.403 91.577,154.403 91.691,154.334 L104.996,146.654 C105.12,146.584 105.199,146.441 105.199,146.294 L105.199,130.939 C105.199,130.789 105.12,130.649 104.993,130.572 L91.693,122.9 C91.57,122.828 91.407,122.828 91.283,122.9 L77.987,130.575 C77.857,130.649 77.775,130.794 77.775,130.939 L77.775,146.294 C77.775,146.441 77.857,146.58 77.985,146.65 L81.63,148.756 C83.608,149.745 84.819,148.58 84.819,147.41 L84.819,132.25 C84.819,132.035 84.991,131.866 85.205,131.866 L86.892,131.866 C87.104,131.866 87.278,132.035 87.278,132.25 L87.278,147.41 C87.278,150.05 85.841,151.563 83.338,151.563 C82.569,151.563 81.964,151.563 80.274,150.73 L76.785,148.722 C75.923,148.223 75.389,147.292 75.389,146.294 L75.389,130.939 C75.389,129.942 75.923,129.01 76.785,128.514 L90.09,120.826 C90.932,120.35 92.051,120.35 92.886,120.826 L106.191,128.514 C107.052,129.012 107.588,129.942 107.588,130.939 L107.588,146.294 C107.588,147.292 107.052,148.22 106.191,148.722 L92.886,156.404 C92.461,156.65 91.978,156.777 91.485,156.777" fill="#689F63" id="path3375"/>
      <path d="M95.595,146.198 C89.773,146.198 88.553,143.526 88.553,141.284 C88.553,141.071 88.724,140.901 88.937,140.901 L90.658,140.901 C90.85,140.901 91.01,141.039 91.04,141.226 C91.3,142.978 92.074,143.861 95.595,143.861 C98.398,143.861 99.592,143.227 99.592,141.74 C99.592,140.883 99.253,140.246 94.897,139.82 C91.257,139.46 89.005,138.655 89.005,135.743 C89.005,133.058 91.268,131.457 95.062,131.457 C99.324,131.457 101.433,132.937 101.7,136.111 C101.71,136.22 101.672,136.325 101.599,136.407 C101.526,136.483 101.424,136.53 101.317,136.53 L99.59,136.53 C99.411,136.53 99.253,136.403 99.217,136.229 C98.803,134.386 97.795,133.798 95.062,133.798 C92.001,133.798 91.646,134.864 91.646,135.663 C91.646,136.63 92.065,136.912 96.197,137.459 C100.286,137.999 102.229,138.765 102.229,141.639 C102.229,144.538 99.811,146.198 95.595,146.198" fill="#689F63" id="path3379"/>
      <path d="M111.797,129.918 L112.244,129.918 C112.61,129.918 112.678,129.66 112.678,129.511 C112.678,129.117 112.407,129.117 112.257,129.117 L111.797,129.117 L111.797,129.918 z M111.253,128.656 L112.244,128.656 C112.583,128.656 113.249,128.656 113.249,129.416 C113.249,129.946 112.909,130.054 112.705,130.122 C113.099,130.149 113.126,130.407 113.18,130.773 C113.208,131.003 113.249,131.397 113.329,131.533 L112.719,131.533 C112.705,131.397 112.61,130.664 112.61,130.624 C112.57,130.461 112.515,130.38 112.312,130.38 L111.81,130.38 L111.81,131.533 L111.253,131.533 L111.253,128.656 z M110.067,130.087 C110.067,131.282 111.03,132.245 112.21,132.245 C113.404,132.245 114.368,131.261 114.368,130.087 C114.368,128.894 113.391,127.944 112.21,127.944 C111.043,127.944 110.067,128.88 110.067,130.087 M114.781,130.095 C114.781,131.506 113.627,132.659 112.217,132.659 C110.819,132.659 109.652,131.519 109.652,130.095 C109.652,128.643 110.847,127.53 112.217,127.53 C113.601,127.53 114.781,128.643 114.781,130.095" fill="#689F63" id="path3383"/>
      <path d="M50.283,96.701 C50.283,96.088 49.96,95.525 49.431,95.221 L35.324,87.103 C35.086,86.962 34.818,86.889 34.548,86.878 L34.402,86.878 C34.132,86.889 33.865,86.962 33.623,87.103 L19.517,95.221 C18.991,95.525 18.664,96.088 18.664,96.701 L18.695,118.561 C18.695,118.865 18.852,119.148 19.12,119.297 C19.382,119.454 19.705,119.454 19.966,119.297 L28.35,114.497 C28.88,114.182 29.203,113.626 29.203,113.018 L29.203,102.806 C29.203,102.197 29.525,101.633 30.053,101.33 L33.623,99.275 C33.889,99.121 34.18,99.046 34.477,99.046 C34.768,99.046 35.066,99.121 35.324,99.275 L38.893,101.33 C39.421,101.633 39.745,102.197 39.745,102.806 L39.745,113.018 C39.745,113.626 40.072,114.185 40.599,114.497 L48.98,119.297 C49.243,119.454 49.571,119.454 49.832,119.297 C50.092,119.148 50.255,118.865 50.255,118.561 L50.283,96.701 z" fill="#333333" id="path3387"/>
      <path d="M116.849,108.084 C116.849,108.236 116.768,108.377 116.636,108.452 L111.791,111.245 C111.659,111.321 111.497,111.321 111.366,111.245 L106.52,108.452 C106.388,108.377 106.307,108.236 106.307,108.084 L106.307,102.489 C106.307,102.337 106.388,102.196 106.52,102.12 L111.365,99.321 C111.497,99.245 111.659,99.245 111.792,99.321 L116.637,102.12 C116.768,102.196 116.849,102.337 116.849,102.489 L116.849,108.084 z M118.159,66.651 C117.895,66.504 117.572,66.507 117.312,66.66 C117.052,66.813 116.891,67.093 116.891,67.395 L116.891,89.044 C116.891,89.257 116.777,89.454 116.594,89.56 C116.409,89.667 116.182,89.667 115.997,89.56 L112.464,87.525 C111.937,87.221 111.288,87.221 110.761,87.525 L96.649,95.669 C96.122,95.974 95.797,96.536 95.797,97.145 L95.797,113.437 C95.797,114.046 96.122,114.608 96.649,114.913 L110.76,123.063 C111.288,123.367 111.937,123.367 112.465,123.063 L126.579,114.913 C127.106,114.608 127.431,114.046 127.431,113.437 L127.431,72.825 C127.431,72.208 127.096,71.638 126.557,71.337 L118.159,66.651 z" fill="#333333" id="path3391"/>
      <path d="M165.15,102.343 C165.675,102.038 165.998,101.476 165.998,100.869 L165.998,96.921 C165.998,96.314 165.675,95.752 165.149,95.447 L151.128,87.306 C150.6,87 149.949,86.999 149.42,87.304 L135.313,95.448 C134.786,95.753 134.461,96.315 134.461,96.924 L134.461,113.211 C134.461,113.824 134.79,114.389 135.322,114.692 L149.341,122.68 C149.858,122.975 150.492,122.979 151.012,122.69 L159.492,117.977 C159.761,117.827 159.928,117.545 159.93,117.237 C159.932,116.93 159.768,116.646 159.502,116.493 L145.306,108.345 C145.041,108.193 144.878,107.91 144.878,107.606 L144.878,102.501 C144.878,102.197 145.04,101.915 145.304,101.763 L149.723,99.216 C149.985,99.064 150.31,99.064 150.573,99.216 L154.993,101.763 C155.258,101.915 155.42,102.197 155.42,102.501 L155.42,106.517 C155.42,106.822 155.583,107.104 155.847,107.256 C156.111,107.408 156.437,107.407 156.7,107.254 L165.15,102.343 z" fill="#333333" id="path3395"/>
      <path d="M150.066,101.58 C150.167,101.521 150.292,101.521 150.393,101.58 L153.101,103.142 C153.202,103.2 153.264,103.308 153.264,103.425 L153.264,106.552 C153.264,106.669 153.202,106.777 153.101,106.835 L150.393,108.398 C150.292,108.456 150.167,108.456 150.066,108.398 L147.36,106.835 C147.259,106.777 147.197,106.669 147.197,106.552 L147.197,103.425 C147.197,103.308 147.259,103.2 147.36,103.142 L150.066,101.58 z" fill="#689F63" id="path3399"/>
    </g>
    <path d="M72.194,87.389 L58.161,95.487 C57.636,95.79 57.314,96.349 57.314,96.955 L57.314,96.955 L57.314,113.164 C57.314,113.769 57.636,114.328 58.161,114.632 L58.161,114.632 L72.194,122.736 C72.718,123.039 73.365,123.039 73.889,122.736 L73.889,122.736 L87.919,114.632 C88.443,114.328 88.766,113.769 88.766,113.164 L88.766,113.164 L88.766,96.954 C88.766,96.349 88.443,95.79 87.918,95.487 L87.918,95.487 L73.889,87.389 C73.627,87.238 73.334,87.162 73.042,87.162 L73.042,87.162 C72.749,87.162 72.456,87.238 72.194,87.389" fill="url(#Gradient_1)" id="path3421"/>
    <path d="M57.662,114.193 C57.796,114.368 57.964,114.518 58.161,114.632 L58.161,114.632 L70.199,121.584 L72.203,122.736 C72.502,122.909 72.844,122.982 73.18,122.958 L73.18,122.958 C73.293,122.948 73.405,122.928 73.514,122.896 L73.514,122.896 L88.311,95.8 C88.198,95.678 88.066,95.573 87.918,95.487 L87.918,95.487 L78.73,90.183 L73.874,87.389 C73.735,87.309 73.586,87.252 73.434,87.214 L73.434,87.214 L57.662,114.193 z" fill="url(#Gradient_2)" id="path3447"/>
    <g clip-path="url(#Clip_2)" id="g3451">
      <path d="M71.726,84.412 L71.533,84.523 L71.791,84.523 L71.726,84.412 z" fill="url(#Gradient_3)" id="path3481"/>
    </g>
    <path d="M72.871,87.171 C72.637,87.194 72.406,87.267 72.194,87.389 L72.194,87.389 L58.201,95.464 L73.286,122.945 C73.495,122.915 73.7,122.845 73.889,122.736 L73.889,122.736 L87.919,114.632 C88.352,114.381 88.648,113.955 88.737,113.474 L88.737,113.474 L73.358,87.199 C73.244,87.176 73.128,87.165 73.013,87.165 L73.013,87.165 C72.966,87.165 72.918,87.167 72.871,87.171" fill="url(#Gradient_4)" id="path3507"/>
    <g clip-path="url(#Clip_3)" id="g3511">
      <path d="M89.262,114.371 L89.169,114.212 L89.169,114.425 L89.262,114.371 z" fill="url(#Gradient_5)" id="path3541"/>
    </g>
    <g clip-path="url(#Clip_4)" id="g3545">
      <path d="M87.954,114.632 L73.907,122.736 C73.714,122.848 73.503,122.917 73.287,122.947 L73.567,123.456 L89.169,114.425 L89.169,114.212 L88.784,113.553 C88.668,114.002 88.363,114.395 87.954,114.632" fill="url(#Gradient_6)" id="path3575"/>
    </g>
    <g clip-path="url(#Clip_5)" id="g3579">
      <path d="M87.954,114.632 L73.907,122.736 C73.714,122.848 73.503,122.917 73.287,122.947 L73.567,123.456 L89.169,114.425 L89.169,114.212 L88.784,113.553 C88.668,114.002 88.363,114.395 87.954,114.632" fill="url(#Gradient_7)" id="path3605"/>
    </g>
  </g>
</svg>
