<?xml version="1.0" encoding="UTF-8"?>
<!DOCTYPE svg PUBLIC "-//W3C//DTD SVG 1.1//EN" "http://www.w3.org/Graphics/SVG/1.1/DTD/svg11.dtd">
<svg version="1.1" xmlns="http://www.w3.org/2000/svg" xmlns:xlink="http://www.w3.org/1999/xlink" x="0" y="0" width="185" height="223.666" viewBox="0, 0, 185, 223.666">
  <g id="Background">
    <rect x="0" y="0" width="185" height="223.666" fill="#000000" fill-opacity="0"/>
  </g>
  <g id="Layer_1">
    <path d="M152.964,121.234 C147.122,121.265 142.045,122.672 137.793,124.751 C136.233,121.662 134.673,118.909 134.398,116.891 C134.092,114.536 133.725,113.098 134.092,110.284 C134.459,107.47 136.111,103.464 136.08,103.158 C136.05,102.852 135.713,101.414 132.349,101.384 C128.984,101.353 126.079,102.026 125.742,102.913 C125.406,103.8 124.763,105.819 124.335,107.899 C123.754,110.957 117.606,121.876 114.089,127.596 C112.957,125.363 111.979,123.406 111.764,121.846 C111.459,119.491 111.092,118.053 111.459,115.239 C111.826,112.425 113.477,108.419 113.447,108.113 C113.416,107.807 113.08,106.369 109.715,106.339 C106.351,106.308 103.445,106.981 103.109,107.868 C102.772,108.755 102.405,110.835 101.702,112.853 C100.998,114.872 92.832,133.101 90.691,137.812 C89.59,140.228 88.641,142.155 87.969,143.47 C87.969,143.47 87.969,143.47 87.969,143.47 C87.969,143.47 87.938,143.562 87.846,143.715 C87.265,144.846 86.929,145.458 86.929,145.458 C86.929,145.458 86.929,145.458 86.929,145.489 C86.47,146.315 85.98,147.079 85.736,147.079 C85.552,147.079 85.216,144.877 85.797,141.88 C87.02,135.548 89.926,125.7 89.895,125.363 C89.895,125.18 90.446,123.467 87.999,122.58 C85.613,121.693 84.757,123.161 84.543,123.161 C84.329,123.161 84.176,123.681 84.176,123.681 C84.176,123.681 86.837,112.609 79.099,112.609 C74.266,112.609 67.598,117.9 64.295,122.672 C62.215,123.803 57.78,126.22 53.039,128.819 C51.235,129.829 49.369,130.838 47.626,131.786 C47.503,131.664 47.381,131.511 47.259,131.389 C37.899,121.387 20.588,114.322 21.322,100.894 C21.597,96.001 23.279,83.154 54.569,67.556 C80.322,54.862 100.815,58.38 104.363,66.179 C109.44,77.313 93.382,97.989 66.772,100.986 C56.618,102.118 51.296,98.203 49.95,96.735 C48.543,95.205 48.329,95.114 47.809,95.419 C46.953,95.878 47.503,97.255 47.809,98.05 C48.604,100.13 51.877,103.8 57.413,105.605 C62.307,107.195 74.205,108.082 88.611,102.515 C104.73,96.276 117.331,78.934 113.63,64.405 C109.929,49.663 85.46,44.8 62.307,53.027 C48.543,57.921 33.617,65.629 22.882,75.661 C10.127,87.589 8.108,97.958 8.934,102.301 C11.901,117.717 33.158,127.749 41.661,135.181 C41.233,135.426 40.835,135.64 40.499,135.824 C36.248,137.934 20.037,146.406 16,155.368 C11.412,165.523 16.734,172.802 20.251,173.781 C31.17,176.809 42.395,171.364 48.421,162.372 C54.446,153.38 53.712,141.696 50.929,136.344 C50.898,136.282 50.868,136.221 50.807,136.16 C51.908,135.518 53.039,134.845 54.14,134.202 C56.312,132.918 58.453,131.725 60.288,130.746 C59.248,133.591 58.484,136.986 58.117,141.88 C57.658,147.63 60.013,155.093 63.102,158.029 C64.478,159.314 66.1,159.344 67.139,159.344 C70.749,159.344 72.37,156.347 74.174,152.799 C76.376,148.456 78.365,143.409 78.365,143.409 C78.365,143.409 75.887,157.05 82.616,157.05 C85.063,157.05 87.54,153.869 88.641,152.248 C88.641,152.279 88.641,152.279 88.641,152.279 C88.641,152.279 88.703,152.187 88.825,151.973 C89.07,151.575 89.223,151.331 89.223,151.331 C89.223,151.331 89.223,151.3 89.223,151.269 C90.201,149.557 92.403,145.672 95.676,139.219 C99.897,130.899 103.965,120.5 103.965,120.5 C103.965,120.5 104.332,123.039 105.586,127.259 C106.32,129.737 107.849,132.459 109.073,135.089 C108.094,136.466 107.482,137.23 107.482,137.23 C107.482,137.23 107.482,137.23 107.513,137.261 C106.718,138.301 105.861,139.433 104.913,140.534 C101.579,144.51 97.603,149.067 97.053,150.382 C96.41,151.942 96.563,153.074 97.787,153.992 C98.674,154.665 100.264,154.756 101.885,154.665 C104.883,154.45 106.993,153.716 108.033,153.258 C109.654,152.676 111.55,151.789 113.324,150.474 C116.597,148.058 118.585,144.602 118.402,140.044 C118.31,137.536 117.484,135.028 116.475,132.673 C116.781,132.245 117.056,131.817 117.362,131.389 C122.531,123.834 126.537,115.545 126.537,115.545 C126.537,115.545 126.904,118.084 128.159,122.305 C128.77,124.446 130.024,126.77 131.125,129.033 C126.262,132.979 123.265,137.567 122.194,140.564 C120.267,146.131 121.766,148.639 124.611,149.22 C125.895,149.495 127.73,148.884 129.076,148.303 C130.789,147.752 132.808,146.804 134.734,145.397 C138.007,142.981 141.158,139.616 140.974,135.059 C140.882,132.979 140.332,130.93 139.567,128.942 C143.696,127.229 149.018,126.281 155.808,127.076 C170.367,128.789 173.242,137.873 172.692,141.696 C172.141,145.519 169.083,147.599 168.073,148.241 C167.064,148.884 166.727,149.098 166.819,149.557 C166.942,150.23 167.431,150.199 168.287,150.077 C169.48,149.863 175.934,146.987 176.209,139.953 C176.668,130.96 168.104,121.142 152.964,121.234 z M40.652,159.099 C35.819,164.36 29.09,166.348 26.185,164.666 C23.065,162.862 24.288,155.093 30.222,149.526 C33.831,146.131 38.48,142.981 41.57,141.054 C42.273,140.626 43.313,140.014 44.567,139.249 C44.781,139.127 44.903,139.066 44.903,139.066 L44.903,139.066 C45.148,138.913 45.393,138.76 45.638,138.607 C47.809,146.559 45.729,153.563 40.652,159.099 z M75.826,135.181 C74.144,139.28 70.626,149.771 68.485,149.19 C66.65,148.7 65.518,140.748 68.118,132.887 C69.433,128.942 72.217,124.231 73.838,122.396 C76.468,119.46 79.374,118.481 80.077,119.674 C80.964,121.234 76.866,132.612 75.826,135.181 z M104.852,149.067 C104.149,149.434 103.476,149.679 103.17,149.495 C102.956,149.373 103.476,148.884 103.476,148.884 C103.476,148.884 107.115,144.969 108.553,143.195 C109.379,142.155 110.357,140.931 111.397,139.555 C111.397,139.677 111.397,139.83 111.397,139.953 C111.397,144.632 106.871,147.783 104.852,149.067 z M127.241,143.959 C126.721,143.592 126.813,142.369 128.556,138.546 C129.229,137.047 130.819,134.539 133.542,132.123 C133.848,133.101 134.062,134.05 134.031,134.937 C134,140.84 129.78,143.042 127.241,143.959 z" fill="#CD6799"/>
  </g>
</svg>
