<?xml version="1.0" encoding="UTF-8" standalone="no"?>
<!DOCTYPE svg PUBLIC "-//W3C//DTD SVG 1.1//EN" "http://www.w3.org/Graphics/SVG/1.1/DTD/svg11.dtd">
<svg width="100%" height="100%" viewBox="0 0 450 110" version="1.1" xmlns="http://www.w3.org/2000/svg" xmlns:xlink="http://www.w3.org/1999/xlink" xml:space="preserve" xmlns:serif="http://www.serif.com/" style="fill-rule:evenodd;clip-rule:evenodd;stroke-linejoin:round;stroke-miterlimit:2;">
    <g id="US" transform="matrix(1,0,0,1,142.572,34.5929)">
        <g transform="matrix(2.63546,0,0,2.63546,-134.808,-32.7092)">
            <path d="M155.327,0L9.535,0C9.168,0 8.806,0 8.44,0.002C8.134,0.004 7.83,0.01 7.521,0.015C6.856,0.031 6.182,0.072 5.517,0.191C4.848,0.309 4.226,0.509 3.616,0.818C3.018,1.125 2.471,1.523 1.998,1.997C1.519,2.471 1.123,3.02 0.819,3.618C0.508,4.227 0.311,4.852 0.194,5.521C0.074,6.184 0.032,6.853 0.015,7.523C0.006,7.83 0.005,8.138 0,8.444L0,31.559C0.005,31.869 0.006,32.17 0.015,32.481C0.032,33.15 0.074,33.82 0.194,34.482C0.311,35.152 0.508,35.78 0.819,36.387C1.123,36.982 1.519,37.531 1.998,38.001C2.471,38.478 3.018,38.876 3.616,39.18C4.226,39.492 4.848,39.689 5.517,39.811C6.182,39.93 6.856,39.969 7.521,39.987C7.83,39.994 8.134,39.998 8.44,39.998C8.806,40 9.168,40 9.535,40L155.327,40C155.687,40 156.052,40 156.411,39.998C156.716,39.998 157.029,39.994 157.333,39.987C158.003,39.969 158.675,39.93 159.333,39.811C160.003,39.689 160.626,39.492 161.242,39.18C161.839,38.876 162.386,38.478 162.859,38.001C163.335,37.531 163.732,36.982 164.04,36.387C164.347,35.78 164.546,35.152 164.659,34.482C164.783,33.82 164.822,33.15 164.845,32.481C164.849,32.17 164.849,31.869 164.849,31.559C164.857,31.195 164.857,30.834 164.857,30.465L164.857,9.536C164.857,9.17 164.857,8.807 164.849,8.444C164.849,8.138 164.849,7.83 164.845,7.523C164.821,6.853 164.783,6.184 164.659,5.521C164.546,4.851 164.347,4.226 164.04,3.618C163.732,3.019 163.335,2.471 162.859,1.997C162.386,1.523 161.839,1.125 161.242,0.818C160.626,0.509 160.003,0.308 159.333,0.191C158.675,0.072 158.003,0.031 157.333,0.014C157.029,0.01 156.716,0.004 156.411,0.002C156.052,0 155.687,0 155.327,0Z" style="fill:rgb(166,166,166);fill-rule:nonzero;"/>
        </g>
        <g transform="matrix(2.63546,0,0,2.63546,-134.808,-32.7092)">
            <path d="M8.445,39.125C8.14,39.125 7.843,39.121 7.541,39.114C6.981,39.099 6.318,39.067 5.671,38.951C5.061,38.841 4.519,38.661 4.015,38.403C3.493,38.139 3.025,37.797 2.618,37.387C2.204,36.981 1.863,36.514 1.597,35.99C1.338,35.485 1.161,34.943 1.054,34.333C0.932,33.66 0.901,32.978 0.888,32.458C0.881,32.247 0.873,31.545 0.873,31.545L0.873,8.444C0.873,8.444 0.882,7.753 0.888,7.55C0.901,7.026 0.932,6.344 1.053,5.678C1.16,5.064 1.337,4.523 1.597,4.016C1.862,3.491 2.203,3.022 2.612,2.618C3.025,2.204 3.496,1.861 4.014,1.595C4.528,1.335 5.069,1.156 5.667,1.051C6.341,0.931 7.023,0.9 7.543,0.887L8.445,0.875L156.406,0.875L157.32,0.888C157.832,0.9 158.515,0.931 159.178,1.05C159.78,1.156 160.325,1.335 160.849,1.598C161.361,1.861 161.831,2.204 162.24,2.614C162.65,3.02 162.992,3.492 163.264,4.018C163.522,4.529 163.697,5.071 163.799,5.667C163.915,6.298 163.951,6.946 163.973,7.554C163.976,7.837 163.976,8.142 163.976,8.444C163.984,8.819 163.984,9.176 163.984,9.536L163.984,30.465C163.984,30.828 163.984,31.183 163.976,31.54C163.976,31.865 163.976,32.163 163.972,32.47C163.951,33.059 163.915,33.706 163.801,34.323C163.697,34.936 163.522,35.478 163.261,35.993C162.991,36.513 162.649,36.982 162.245,37.379C161.832,37.797 161.363,38.138 160.846,38.401C160.327,38.665 159.798,38.84 159.178,38.951C158.537,39.067 157.874,39.099 157.309,39.114C157.016,39.121 156.709,39.125 156.411,39.125L155.327,39.127L8.445,39.125Z" style="fill-rule:nonzero;"/>
        </g>
        <g id="XMLID_632_" transform="matrix(2.63546,0,0,2.63546,-134.808,-32.7092)">
            <path id="XMLID_662_" d="M32.182,29.228C31.938,29.849 31.373,30.724 30.573,31.34C30.111,31.696 29.559,32.037 28.801,32.261C27.993,32.5 26.998,32.581 25.76,32.581L14.437,32.581C13.198,32.581 12.203,32.5 11.395,32.261C10.638,32.037 10.086,31.696 9.624,31.34C8.824,30.724 8.259,29.849 8.014,29.228C7.522,27.976 7.517,26.556 7.517,25.662L7.517,14.338C7.517,13.444 7.522,12.023 8.014,10.772C8.259,10.15 8.823,9.275 9.624,8.659C10.086,8.303 10.638,7.963 11.395,7.739C12.203,7.499 13.198,7.418 14.437,7.418L25.76,7.418C26.998,7.418 27.993,7.499 28.801,7.739C29.559,7.963 30.111,8.303 30.573,8.659C31.373,9.276 31.938,10.15 32.182,10.772C32.675,12.023 32.68,13.444 32.68,14.338L32.68,25.662C32.68,26.556 32.675,27.976 32.182,29.228Z" style="fill:url(#_Linear1);"/>
            <path id="XMLID_660_" d="M32.182,29.228C31.938,29.849 31.373,30.724 30.573,31.34C30.111,31.696 29.559,32.037 28.801,32.261C27.993,32.5 26.998,32.581 25.76,32.581L14.437,32.581C13.198,32.581 12.203,32.5 11.395,32.261C10.638,32.037 10.086,31.696 9.624,31.34C8.824,30.724 8.259,29.849 8.014,29.228C7.522,27.976 7.517,26.556 7.517,25.662L7.517,14.338C7.517,13.444 7.522,12.023 8.014,10.772C8.259,10.15 8.823,9.275 9.624,8.659C10.086,8.303 10.638,7.963 11.395,7.739C12.203,7.499 13.198,7.418 14.437,7.418L25.76,7.418C26.998,7.418 27.993,7.499 28.801,7.739C29.559,7.963 30.111,8.303 30.573,8.659C31.373,9.276 31.938,10.15 32.182,10.772C32.675,12.023 32.68,13.444 32.68,14.338L32.68,25.662C32.68,26.556 32.675,27.976 32.182,29.228Z" style="fill:none;"/>
            <g id="XMLID_648_">
                <g>
                    <path d="M21.923,21.882C21.546,21.483 20.882,21.228 20.1,21.228C19.317,21.228 18.653,21.483 18.276,21.882C18.079,22.089 17.975,22.302 17.942,22.606C17.878,23.194 17.914,23.7 17.983,24.51C18.048,25.281 18.173,26.309 18.336,27.357C18.451,28.102 18.545,28.504 18.631,28.792C18.77,29.259 19.288,29.668 20.1,29.668C20.911,29.668 21.429,29.259 21.568,28.792C21.654,28.504 21.748,28.102 21.863,27.357C22.026,26.309 22.151,25.281 22.216,24.51C22.285,23.7 22.321,23.194 22.257,22.606C22.224,22.303 22.12,22.089 21.923,21.882ZM18.042,18.334C18.042,19.472 18.964,20.394 20.101,20.394C21.239,20.394 22.161,19.472 22.161,18.334C22.161,17.197 21.239,16.275 20.101,16.275C18.964,16.275 18.042,17.197 18.042,18.334ZM20.076,10.207C15.26,10.221 11.313,14.128 11.254,18.944C11.205,22.846 13.696,26.183 17.173,27.406C17.257,27.436 17.343,27.366 17.33,27.277C17.284,26.974 17.241,26.67 17.202,26.37C17.188,26.265 17.12,26.173 17.023,26.131C14.274,24.93 12.355,22.173 12.386,18.98C12.426,14.79 15.848,11.374 20.038,11.34C24.322,11.305 27.818,14.78 27.818,19.056C27.818,22.217 25.907,24.94 23.18,26.131C23.082,26.174 23.015,26.265 23.001,26.371C22.962,26.67 22.919,26.974 22.873,27.277C22.86,27.365 22.946,27.436 23.03,27.406C26.474,26.194 28.95,22.909 28.95,19.056C28.95,14.168 24.967,10.193 20.076,10.207ZM19.916,14.267C22.646,14.161 24.901,16.351 24.901,19.059C24.901,20.435 24.318,21.678 23.386,22.554C23.306,22.628 23.264,22.733 23.27,22.842C23.289,23.171 23.282,23.491 23.26,23.852C23.254,23.949 23.362,24.01 23.442,23.956C25.005,22.888 26.033,21.091 26.033,19.059C26.033,15.712 23.246,13.004 19.871,13.135C16.735,13.257 14.218,15.843 14.178,18.981C14.152,21.046 15.186,22.874 16.77,23.956C16.849,24.01 16.957,23.949 16.951,23.853C16.929,23.491 16.923,23.171 16.941,22.842C16.947,22.734 16.905,22.628 16.826,22.554C15.864,21.651 15.274,20.358 15.312,18.93C15.378,16.417 17.404,14.364 19.916,14.267Z" style="fill:white;fill-rule:nonzero;"/>
                </g>
            </g>
        </g>
        <g transform="matrix(2.63546,0,0,2.63546,-134.808,-32.7092)">
            <path d="M46.223,27.822L41.49,27.822L40.353,31.179L38.348,31.179L42.831,18.76L44.914,18.76L49.398,31.179L47.359,31.179L46.223,27.822ZM41.98,26.273L45.732,26.273L43.882,20.825L43.83,20.825L41.98,26.273Z" style="fill:white;fill-rule:nonzero;"/>
            <path d="M59.08,26.652C59.08,29.466 57.575,31.273 55.302,31.273C54.012,31.273 52.988,30.696 52.454,29.689L52.411,29.689L52.411,34.174L50.552,34.174L50.552,22.125L52.351,22.125L52.351,23.631L52.385,23.631C52.902,22.659 54.003,22.03 55.268,22.03C57.566,22.03 59.08,23.847 59.08,26.652ZM57.17,26.652C57.17,24.819 56.223,23.614 54.778,23.614C53.358,23.614 52.403,24.845 52.403,26.652C52.403,28.477 53.358,29.698 54.778,29.698C56.223,29.698 57.17,28.502 57.17,26.652Z" style="fill:white;fill-rule:nonzero;"/>
            <path d="M69.045,26.652C69.045,29.466 67.539,31.273 65.267,31.273C63.977,31.273 62.952,30.696 62.418,29.689L62.375,29.689L62.375,34.174L60.517,34.174L60.517,22.125L62.316,22.125L62.316,23.631L62.35,23.631C62.866,22.659 63.968,22.03 65.233,22.03C67.531,22.03 69.045,23.847 69.045,26.652ZM67.135,26.652C67.135,24.819 66.188,23.614 64.742,23.614C63.323,23.614 62.367,24.845 62.367,26.652C62.367,28.477 63.323,29.698 64.742,29.698C66.188,29.698 67.135,28.502 67.135,26.652Z" style="fill:white;fill-rule:nonzero;"/>
            <rect x="70.55" y="18.76" width="1.859" height="12.419" style="fill:white;fill-rule:nonzero;"/>
            <path d="M82.085,28.52C81.835,30.163 80.235,31.291 78.187,31.291C75.553,31.291 73.918,29.526 73.918,26.695C73.918,23.856 75.562,22.014 78.109,22.014C80.614,22.014 82.189,23.734 82.189,26.48L82.189,27.116L75.794,27.116L75.794,27.229C75.794,28.777 76.767,29.793 78.23,29.793C79.262,29.793 80.072,29.303 80.321,28.52L82.085,28.52L82.085,28.52ZM75.803,25.817L80.329,25.817C80.286,24.432 79.4,23.52 78.109,23.52C76.827,23.52 75.898,24.449 75.803,25.817Z" style="fill:white;fill-rule:nonzero;"/>
            <path d="M92.087,18.76C94.496,18.76 96.175,20.421 96.175,22.84C96.175,25.267 94.462,26.936 92.027,26.936L89.359,26.936L89.359,31.179L87.431,31.179L87.431,18.76L92.087,18.76ZM89.359,25.318L91.571,25.318C93.248,25.318 94.203,24.414 94.203,22.849C94.203,21.282 93.248,20.386 91.579,20.386L89.359,20.386L89.359,25.318Z" style="fill:white;fill-rule:nonzero;"/>
            <path d="M96.854,26.652C96.854,23.804 98.532,22.014 101.148,22.014C103.773,22.014 105.443,23.804 105.443,26.652C105.443,29.509 103.781,31.291 101.148,31.291C98.515,31.291 96.854,29.509 96.854,26.652ZM103.549,26.652C103.549,24.698 102.654,23.545 101.148,23.545C99.642,23.545 98.746,24.707 98.746,26.652C98.746,28.614 99.642,29.759 101.148,29.759C102.654,29.759 103.549,28.614 103.549,26.652Z" style="fill:white;fill-rule:nonzero;"/>
            <path d="M106.747,26.652C106.747,23.855 108.287,22.03 110.534,22.03C111.833,22.03 112.858,22.633 113.373,23.631L113.409,23.631L113.409,18.76L115.276,18.76L115.276,31.179L113.468,31.179L113.468,29.639L113.434,29.639C112.901,30.671 111.868,31.273 110.551,31.273C108.287,31.273 106.747,29.449 106.747,26.652ZM108.649,26.652C108.649,28.511 109.596,29.698 111.041,29.698C112.47,29.698 113.425,28.493 113.425,26.652C113.425,24.827 112.47,23.614 111.041,23.614C109.596,23.614 108.649,24.811 108.649,26.652Z" style="fill:white;fill-rule:nonzero;"/>
            <path d="M123.184,25.24C123.021,24.285 122.272,23.571 121.05,23.571C119.621,23.571 118.674,24.768 118.674,26.652C118.674,28.58 119.63,29.741 121.067,29.741C122.22,29.741 122.978,29.165 123.184,28.115L124.974,28.115C124.768,30.017 123.244,31.291 121.05,31.291C118.468,31.291 116.781,29.526 116.781,26.652C116.781,23.838 118.468,22.014 121.033,22.014C123.356,22.014 124.802,23.477 124.957,25.24L123.184,25.24L123.184,25.24Z" style="fill:white;fill-rule:nonzero;"/>
            <path d="M126.113,28.606C126.113,27.023 127.326,26.066 129.477,25.938L131.955,25.8L131.955,25.111C131.955,24.105 131.293,23.536 130.166,23.536C129.133,23.536 128.41,24.027 128.264,24.811L126.526,24.811C126.578,23.175 128.1,22.014 130.217,22.014C132.377,22.014 133.806,23.192 133.806,24.974L133.806,31.179L132.025,31.179L132.025,29.689L131.982,29.689C131.456,30.696 130.312,31.334 129.124,31.334C127.352,31.334 126.113,30.232 126.113,28.606ZM131.955,27.788L131.955,27.091L129.727,27.229C128.617,27.298 127.989,27.779 127.989,28.554C127.989,29.346 128.643,29.862 129.641,29.862C130.941,29.862 131.955,28.967 131.955,27.788Z" style="fill:white;fill-rule:nonzero;"/>
            <path d="M138.994,22.023C140.999,22.023 142.436,23.132 142.479,24.733L140.732,24.733C140.655,23.933 139.975,23.443 138.942,23.443C137.935,23.443 137.264,23.906 137.264,24.612C137.264,25.154 137.711,25.516 138.65,25.748L140.173,26.102C141.997,26.54 142.686,27.211 142.686,28.537C142.686,30.172 141.137,31.291 138.925,31.291C136.79,31.291 135.354,30.197 135.216,28.545L137.057,28.545C137.187,29.414 137.883,29.879 139.011,29.879C140.122,29.879 140.819,29.423 140.819,28.7C140.819,28.141 140.474,27.84 139.528,27.599L137.91,27.203C136.274,26.807 135.448,25.972 135.448,24.716C135.448,23.115 136.885,22.023 138.994,22.023Z" style="fill:white;fill-rule:nonzero;"/>
            <path d="M146.724,19.982L146.724,22.125L148.446,22.125L148.446,23.597L146.724,23.597L146.724,28.588C146.724,29.363 147.069,29.725 147.825,29.725C148.015,29.725 148.317,29.698 148.437,29.682L148.437,31.145C148.231,31.196 147.818,31.23 147.405,31.23C145.572,31.23 144.857,30.542 144.857,28.786L144.857,23.597L143.54,23.597L143.54,22.125L144.857,22.125L144.857,19.982L146.724,19.982Z" style="fill:white;fill-rule:nonzero;"/>
            <path d="M153.443,22.023C155.449,22.023 156.885,23.132 156.928,24.733L155.181,24.733C155.104,23.933 154.424,23.443 153.391,23.443C152.384,23.443 151.713,23.906 151.713,24.612C151.713,25.154 152.161,25.516 153.099,25.748L154.622,26.102C156.447,26.54 157.135,27.211 157.135,28.537C157.135,30.172 155.586,31.291 153.374,31.291C151.24,31.291 149.803,30.197 149.665,28.545L151.506,28.545C151.636,29.414 152.332,29.879 153.46,29.879C154.571,29.879 155.268,29.423 155.268,28.7C155.268,28.141 154.923,27.84 153.977,27.599L152.359,27.203C150.723,26.807 149.897,25.972 149.897,24.716C149.897,23.115 151.334,22.023 153.443,22.023Z" style="fill:white;fill-rule:nonzero;"/>
        </g>
        <g transform="matrix(2.63546,0,0,2.63546,-134.808,-32.7092)">
            <path d="M42.958,14.661L39.236,14.661L39.236,8.694L40.162,8.694L40.162,13.809L42.958,13.809L42.958,14.661Z" style="fill:white;fill-rule:nonzero;"/>
            <path d="M44.035,8.827C44.035,8.516 44.279,8.281 44.609,8.281C44.94,8.281 45.184,8.516 45.184,8.827C45.184,9.132 44.94,9.368 44.609,9.368C44.279,9.368 44.035,9.132 44.035,8.827ZM44.167,10.158L45.052,10.158L45.052,14.661L44.167,14.661L44.167,10.158Z" style="fill:white;fill-rule:nonzero;"/>
            <path d="M48.131,10.071C49.144,10.071 49.805,10.543 49.892,11.336L49.04,11.336C48.957,11.006 48.635,10.795 48.131,10.795C47.634,10.795 47.258,11.03 47.258,11.382C47.258,11.651 47.486,11.82 47.973,11.932L48.722,12.105C49.578,12.304 49.979,12.672 49.979,13.334C49.979,14.182 49.189,14.748 48.114,14.748C47.043,14.748 46.344,14.264 46.265,13.466L47.155,13.466C47.266,13.814 47.597,14.028 48.135,14.028C48.689,14.028 49.082,13.78 49.082,13.42C49.082,13.152 48.871,12.978 48.42,12.871L47.634,12.689C46.778,12.486 46.381,12.102 46.381,11.432C46.381,10.633 47.113,10.071 48.131,10.071Z" style="fill:white;fill-rule:nonzero;"/>
            <path d="M52.346,9.037L52.346,10.179L53.322,10.179L53.322,10.927L52.346,10.927L52.346,13.243C52.346,13.714 52.54,13.921 52.983,13.921C53.119,13.921 53.197,13.913 53.322,13.9L53.322,14.641C53.177,14.665 53.012,14.686 52.838,14.686C51.849,14.686 51.457,14.338 51.457,13.47L51.457,10.927L50.742,10.927L50.742,10.179L51.457,10.179L51.457,9.037L52.346,9.037Z" style="fill:white;fill-rule:nonzero;"/>
            <path d="M58.253,13.445C58.051,14.252 57.331,14.748 56.301,14.748C55.011,14.748 54.221,13.863 54.221,12.424C54.221,10.985 55.028,10.071 56.297,10.071C57.55,10.071 58.307,10.927 58.307,12.341L58.307,12.651L55.127,12.651L55.127,12.701C55.156,13.491 55.615,13.991 56.326,13.991C56.863,13.991 57.232,13.797 57.397,13.445L58.253,13.445ZM55.127,11.994L57.401,11.994C57.381,11.287 56.951,10.828 56.293,10.828C55.636,10.828 55.177,11.291 55.127,11.994Z" style="fill:white;fill-rule:nonzero;"/>
            <path d="M59.499,10.158L60.355,10.158L60.355,10.874L60.422,10.874C60.641,10.373 61.087,10.071 61.766,10.071C62.77,10.071 63.325,10.675 63.325,11.746L63.325,14.661L62.435,14.661L62.435,11.969C62.435,11.246 62.121,10.886 61.464,10.886C60.806,10.886 60.389,11.324 60.389,12.027L60.389,14.661L59.499,14.661L59.499,10.158Z" style="fill:white;fill-rule:nonzero;"/>
            <path d="M66.918,12.408C66.918,10.956 67.729,10.071 69.044,10.071C70.354,10.071 71.165,10.956 71.165,12.408C71.165,13.867 70.359,14.748 69.044,14.748C67.724,14.748 66.918,13.867 66.918,12.408ZM70.251,12.408C70.251,11.432 69.813,10.861 69.044,10.861C68.27,10.861 67.836,11.432 67.836,12.408C67.836,13.392 68.27,13.958 69.044,13.958C69.813,13.958 70.251,13.388 70.251,12.408Z" style="fill:white;fill-rule:nonzero;"/>
            <path d="M72.357,10.158L73.213,10.158L73.213,10.874L73.28,10.874C73.499,10.373 73.945,10.071 74.623,10.071C75.628,10.071 76.183,10.675 76.183,11.746L76.183,14.661L75.293,14.661L75.293,11.969C75.293,11.246 74.979,10.886 74.322,10.886C73.664,10.886 73.246,11.324 73.246,12.027L73.246,14.661L72.357,14.661L72.357,10.158Z" style="fill:white;fill-rule:nonzero;"/>
        </g>
    </g>
    <defs>
        <linearGradient id="_Linear1" x1="0" y1="0" x2="1" y2="0" gradientUnits="userSpaceOnUse" gradientTransform="matrix(1.54079e-15,25.163,-25.163,1.54079e-15,20.0983,7.4183)"><stop offset="0" style="stop-color:rgb(244,82,255);stop-opacity:1"/><stop offset="1" style="stop-color:rgb(131,43,193);stop-opacity:1"/></linearGradient>
    </defs>
</svg>
