<?xml version="1.0" encoding="UTF-8" standalone="no"?>
<!DOCTYPE svg PUBLIC "-//W3C//DTD SVG 1.1//EN" "http://www.w3.org/Graphics/SVG/1.1/DTD/svg11.dtd">
<svg width="100%" height="100%" viewBox="0 0 450 114" version="1.1" xmlns="http://www.w3.org/2000/svg" xmlns:xlink="http://www.w3.org/1999/xlink" xml:space="preserve" xmlns:serif="http://www.serif.com/" style="fill-rule:evenodd;clip-rule:evenodd;">
    <g id="EN_Google_Podcasts_Badge" transform="matrix(1,0,0,1,150,38)">
        <g id="Rectangle-Solid" transform="matrix(2.89999,0,0,2.89999,-142.499,-36.0997)">
            <path id="Rectangle" d="M149.72,3.37C149.72,1.664 148.336,0.28 146.63,0.28L3.37,0.28C1.664,0.28 0.28,1.664 0.28,3.37L0.28,34.63C0.28,36.336 1.664,37.72 3.37,37.72L146.63,37.72C148.336,37.72 149.72,36.336 149.72,34.63L149.72,3.37Z" style="fill:white;stroke:rgb(154,160,166);stroke-width:0.56px;"/>
        </g>
        <g id="Podcast_icon_final" transform="matrix(2.89999,0,0,2.89999,-125.099,-18.6998)">
            <g id="logo_podcasts_192px">
                <rect id="Rectangle-path" x="0" y="0" width="27" height="27" style="fill:none;"/>
                <path id="Shape" d="M2.672,11.109C1.817,11.109 1.125,11.801 1.125,12.656L1.125,14.344C1.125,15.199 1.817,15.891 2.672,15.891C3.527,15.891 4.219,15.199 4.219,14.344L4.219,12.656C4.219,11.801 3.527,11.109 2.672,11.109Z" style="fill:rgb(0,102,217);fill-rule:nonzero;"/>
                <path id="Shape1" serif:id="Shape" d="M24.328,11.109C23.473,11.109 22.781,11.801 22.781,12.656L22.781,14.344C22.781,15.199 23.473,15.891 24.328,15.891C25.183,15.891 25.875,15.199 25.875,14.344L25.875,12.656C25.875,11.801 25.183,11.109 24.328,11.109Z" style="fill:rgb(66,133,244);fill-rule:nonzero;"/>
                <path id="Shape2" serif:id="Shape" d="M8.016,16.172C7.161,16.172 6.469,16.864 6.469,17.719L6.469,19.406C6.469,20.261 7.161,20.953 8.016,20.953C8.871,20.953 9.563,20.261 9.563,19.406L9.563,17.719C9.563,16.864 8.871,16.172 8.016,16.172Z" style="fill:rgb(234,67,53);fill-rule:nonzero;"/>
                <path id="Shape3" serif:id="Shape" d="M8.016,6.047C7.161,6.047 6.469,6.739 6.469,7.594L6.469,13.113L6.47,13.113C6.49,13.951 7.173,14.625 8.016,14.625C8.858,14.625 9.541,13.951 9.561,13.113L9.563,13.113L9.563,7.594C9.563,6.739 8.871,6.047 8.016,6.047Z" style="fill:rgb(234,67,53);fill-rule:nonzero;"/>
                <path id="Shape4" serif:id="Shape" d="M18.984,6.047C18.129,6.047 17.438,6.739 17.438,7.594L17.438,9.281C17.438,10.136 18.129,10.828 18.984,10.828C19.839,10.828 20.531,10.136 20.531,9.281L20.531,7.594C20.531,6.739 19.839,6.047 18.984,6.047Z" style="fill:rgb(52,168,83);fill-rule:nonzero;"/>
                <path id="Shape5" serif:id="Shape" d="M13.5,1.125C12.645,1.125 11.953,1.817 11.953,2.672L11.953,4.359C11.953,5.214 12.645,5.906 13.5,5.906C14.355,5.906 15.047,5.214 15.047,4.359L15.047,2.672C15.047,1.817 14.355,1.125 13.5,1.125Z" style="fill:rgb(250,185,8);fill-rule:nonzero;"/>
                <path id="Shape6" serif:id="Shape" d="M13.5,21.094C12.645,21.094 11.953,21.786 11.953,22.641L11.953,24.328C11.953,25.183 12.645,25.875 13.5,25.875C14.355,25.875 15.047,25.183 15.047,24.328L15.047,22.641C15.047,21.786 14.355,21.094 13.5,21.094Z" style="fill:rgb(250,185,8);fill-rule:nonzero;"/>
                <path id="Shape7" serif:id="Shape" d="M18.984,12.375C18.129,12.375 17.438,13.067 17.438,13.922L17.438,19.406C17.438,20.261 18.129,20.953 18.984,20.953C19.839,20.953 20.531,20.261 20.531,19.406L20.531,13.922C20.531,13.067 19.839,12.375 18.984,12.375Z" style="fill:rgb(52,168,83);fill-rule:nonzero;"/>
                <path id="Shape8" serif:id="Shape" d="M15.047,9C15.047,8.145 14.355,7.453 13.5,7.453C12.645,7.453 11.953,8.145 11.953,9L11.953,18C11.953,18.855 12.645,19.547 13.5,19.547C14.355,19.547 15.047,18.855 15.047,18L15.047,9Z" style="fill:rgb(250,185,8);fill-rule:nonzero;"/>
            </g>
        </g>
        <g id="Group" transform="matrix(2.89999,0,0,2.89999,-29.3995,7.40005)">
            <path id="Rectangle-path1" serif:id="Rectangle-path" d="M0,3.24L101.92,3.24L101.92,18.92L0,18.92L0,3.24Z" style="fill:none;"/>
            <path id="Podcasts" d="M50.344,14.06L50.344,9.972L52.542,9.972C53.102,9.972 53.62,9.846 54.096,9.594C54.572,9.342 54.952,8.99 55.237,8.537C55.522,8.084 55.664,7.573 55.664,7.004C55.664,6.435 55.522,5.924 55.237,5.471C54.952,5.018 54.572,4.666 54.096,4.414C53.62,4.162 53.102,4.036 52.542,4.036L49.168,4.036L49.168,14.06L50.344,14.06ZM52.57,8.838L50.344,8.838L50.344,5.17L52.57,5.17C52.943,5.17 53.272,5.259 53.557,5.436C53.842,5.613 54.063,5.842 54.222,6.122C54.381,6.402 54.46,6.696 54.46,7.004C54.46,7.312 54.381,7.606 54.222,7.886C54.063,8.166 53.842,8.395 53.557,8.572C53.272,8.749 52.943,8.838 52.57,8.838ZM59.598,14.284C60.298,14.284 60.928,14.116 61.488,13.78C62.048,13.444 62.484,12.987 62.797,12.408C63.11,11.829 63.266,11.19 63.266,10.49C63.266,9.79 63.11,9.151 62.797,8.572C62.484,7.993 62.048,7.536 61.488,7.2C60.928,6.864 60.298,6.696 59.598,6.696C58.898,6.696 58.268,6.864 57.708,7.2C57.148,7.536 56.712,7.993 56.399,8.572C56.086,9.151 55.93,9.79 55.93,10.49C55.93,11.19 56.086,11.829 56.399,12.408C56.712,12.987 57.148,13.444 57.708,13.78C58.268,14.116 58.898,14.284 59.598,14.284ZM59.598,13.206C59.159,13.206 58.749,13.096 58.366,12.877C57.983,12.658 57.678,12.343 57.449,11.932C57.22,11.521 57.106,11.041 57.106,10.49C57.106,9.939 57.22,9.459 57.449,9.048C57.678,8.637 57.983,8.322 58.366,8.103C58.749,7.884 59.159,7.774 59.598,7.774C60.037,7.774 60.445,7.884 60.823,8.103C61.201,8.322 61.504,8.637 61.733,9.048C61.962,9.459 62.076,9.939 62.076,10.49C62.076,11.041 61.962,11.521 61.733,11.932C61.504,12.343 61.201,12.658 60.823,12.877C60.445,13.096 60.037,13.206 59.598,13.206ZM67.48,14.284C68.031,14.284 68.521,14.16 68.95,13.913C69.379,13.666 69.706,13.365 69.93,13.01L69.986,13.01L69.986,14.06L71.12,14.06L71.12,4.036L69.93,4.036L69.93,6.99L69.986,7.984L69.93,7.984C69.706,7.62 69.379,7.314 68.95,7.067C68.521,6.82 68.031,6.696 67.48,6.696C66.845,6.696 66.269,6.859 65.751,7.186C65.233,7.513 64.825,7.965 64.526,8.544C64.227,9.123 64.078,9.771 64.078,10.49C64.078,11.218 64.227,11.869 64.526,12.443C64.825,13.017 65.233,13.467 65.751,13.794C66.269,14.121 66.845,14.284 67.48,14.284ZM67.62,13.206C67.209,13.206 66.822,13.094 66.458,12.87C66.094,12.646 65.802,12.326 65.583,11.911C65.364,11.496 65.254,11.022 65.254,10.49C65.254,9.958 65.364,9.484 65.583,9.069C65.802,8.654 66.094,8.334 66.458,8.11C66.822,7.886 67.209,7.774 67.62,7.774C68.04,7.774 68.43,7.886 68.789,8.11C69.148,8.334 69.438,8.651 69.657,9.062C69.876,9.473 69.986,9.949 69.986,10.49C69.986,11.031 69.876,11.507 69.657,11.918C69.438,12.329 69.148,12.646 68.789,12.87C68.43,13.094 68.04,13.206 67.62,13.206ZM75.852,14.284C76.617,14.284 77.268,14.102 77.805,13.738C78.342,13.374 78.731,12.898 78.974,12.31L77.91,11.862C77.733,12.291 77.462,12.623 77.098,12.856C76.734,13.089 76.3,13.206 75.796,13.206C75.376,13.206 74.984,13.092 74.62,12.863C74.256,12.634 73.964,12.315 73.745,11.904C73.526,11.493 73.416,11.022 73.416,10.49C73.416,9.958 73.526,9.487 73.745,9.076C73.964,8.665 74.256,8.346 74.62,8.117C74.984,7.888 75.376,7.774 75.796,7.774C76.291,7.774 76.713,7.888 77.063,8.117C77.413,8.346 77.677,8.679 77.854,9.118L78.932,8.67C78.708,8.073 78.332,7.594 77.805,7.235C77.278,6.876 76.627,6.696 75.852,6.696C75.161,6.696 74.541,6.859 73.99,7.186C73.439,7.513 73.01,7.965 72.702,8.544C72.394,9.123 72.24,9.771 72.24,10.49C72.24,11.209 72.394,11.855 72.702,12.429C73.01,13.003 73.439,13.456 73.99,13.787C74.541,14.118 75.161,14.284 75.852,14.284ZM82.278,14.284C82.791,14.284 83.253,14.163 83.664,13.92C84.075,13.677 84.383,13.383 84.588,13.038L84.644,13.038L84.644,14.06L85.778,14.06L85.778,9.538C85.778,8.661 85.5,7.968 84.945,7.459C84.39,6.95 83.627,6.696 82.656,6.696C82.059,6.696 81.515,6.817 81.025,7.06C80.535,7.303 80.15,7.639 79.87,8.068L80.766,8.74C80.962,8.432 81.228,8.192 81.564,8.019C81.9,7.846 82.269,7.76 82.67,7.76C83.239,7.76 83.711,7.921 84.084,8.243C84.457,8.565 84.644,8.992 84.644,9.524L84.644,9.958C84.448,9.837 84.166,9.729 83.797,9.636C83.428,9.543 83.029,9.496 82.6,9.496C81.732,9.496 81.013,9.708 80.444,10.133C79.875,10.558 79.59,11.148 79.59,11.904C79.59,12.361 79.702,12.77 79.926,13.129C80.15,13.488 80.467,13.771 80.878,13.976C81.289,14.181 81.755,14.284 82.278,14.284ZM82.39,13.234C81.933,13.234 81.555,13.113 81.256,12.87C80.957,12.627 80.808,12.31 80.808,11.918C80.808,11.489 80.974,11.139 81.305,10.868C81.636,10.597 82.129,10.462 82.782,10.462C83.146,10.462 83.491,10.509 83.818,10.602C84.145,10.695 84.42,10.817 84.644,10.966C84.644,11.377 84.541,11.755 84.336,12.1C84.131,12.445 83.855,12.721 83.51,12.926C83.165,13.131 82.791,13.234 82.39,13.234ZM89.656,14.284C90.179,14.284 90.655,14.195 91.084,14.018C91.513,13.841 91.854,13.586 92.106,13.255C92.358,12.924 92.484,12.539 92.484,12.1C92.484,11.596 92.307,11.169 91.952,10.819C91.597,10.469 91.07,10.205 90.37,10.028L89.334,9.762C88.923,9.659 88.615,9.526 88.41,9.363C88.205,9.2 88.102,8.987 88.102,8.726C88.102,8.446 88.249,8.215 88.543,8.033C88.837,7.851 89.18,7.76 89.572,7.76C90.384,7.76 90.949,8.077 91.266,8.712L92.302,8.236C92.097,7.751 91.749,7.373 91.259,7.102C90.769,6.831 90.211,6.696 89.586,6.696C89.11,6.696 88.667,6.78 88.256,6.948C87.845,7.116 87.516,7.356 87.269,7.669C87.022,7.982 86.898,8.343 86.898,8.754C86.898,9.286 87.08,9.72 87.444,10.056C87.808,10.392 88.275,10.63 88.844,10.77L89.712,10.994C90.253,11.125 90.65,11.281 90.902,11.463C91.154,11.645 91.28,11.885 91.28,12.184C91.28,12.52 91.121,12.779 90.804,12.961C90.487,13.143 90.104,13.234 89.656,13.234C89.236,13.234 88.851,13.117 88.501,12.884C88.151,12.651 87.887,12.319 87.71,11.89L86.646,12.366C86.861,12.926 87.225,13.386 87.738,13.745C88.251,14.104 88.891,14.284 89.656,14.284ZM96.264,14.172C96.488,14.172 96.672,14.158 96.817,14.13C96.962,14.102 97.104,14.055 97.244,13.99L97.244,12.828C96.992,12.987 96.731,13.066 96.46,13.066C96.124,13.066 95.867,12.963 95.69,12.758C95.541,12.571 95.466,12.282 95.466,11.89L95.466,7.998L97.202,7.998L97.202,6.92L95.466,6.92L95.466,4.904L94.276,4.904L94.276,6.92L93.03,6.92L93.03,7.998L94.276,7.998L94.276,12.184C94.276,12.52 94.323,12.805 94.416,13.038C94.509,13.271 94.649,13.477 94.836,13.654C95.004,13.813 95.212,13.939 95.459,14.032C95.706,14.125 95.975,14.172 96.264,14.172ZM101.08,14.284C101.603,14.284 102.079,14.195 102.508,14.018C102.937,13.841 103.278,13.586 103.53,13.255C103.782,12.924 103.908,12.539 103.908,12.1C103.908,11.596 103.731,11.169 103.376,10.819C103.021,10.469 102.494,10.205 101.794,10.028L100.758,9.762C100.347,9.659 100.039,9.526 99.834,9.363C99.629,9.2 99.526,8.987 99.526,8.726C99.526,8.446 99.673,8.215 99.967,8.033C100.261,7.851 100.604,7.76 100.996,7.76C101.808,7.76 102.373,8.077 102.69,8.712L103.726,8.236C103.521,7.751 103.173,7.373 102.683,7.102C102.193,6.831 101.635,6.696 101.01,6.696C100.534,6.696 100.091,6.78 99.68,6.948C99.269,7.116 98.94,7.356 98.693,7.669C98.446,7.982 98.322,8.343 98.322,8.754C98.322,9.286 98.504,9.72 98.868,10.056C99.232,10.392 99.699,10.63 100.268,10.77L101.136,10.994C101.677,11.125 102.074,11.281 102.326,11.463C102.578,11.645 102.704,11.885 102.704,12.184C102.704,12.52 102.545,12.779 102.228,12.961C101.911,13.143 101.528,13.234 101.08,13.234C100.66,13.234 100.275,13.117 99.925,12.884C99.575,12.651 99.311,12.319 99.134,11.89L98.07,12.366C98.285,12.926 98.649,13.386 99.162,13.745C99.675,14.104 100.315,14.284 101.08,14.284Z" style="fill:rgb(60,64,67);fill-rule:nonzero;"/>
            <path id="Combined-Shape" d="M31.621,6.813C32.503,6.813 33.2,7.205 33.56,7.641L33.614,7.641L33.614,7.042L35.16,7.042L35.16,13.652C35.16,16.374 33.56,17.484 31.665,17.484C29.879,17.484 28.801,16.287 28.398,15.307L29.803,14.719C30.053,15.318 30.663,16.025 31.654,16.025C32.863,16.025 33.614,15.274 33.614,13.869L33.614,13.336L33.56,13.336C33.2,13.782 32.503,14.174 31.621,14.174C29.781,14.174 28.093,12.563 28.093,10.505C28.093,8.425 29.781,6.813 31.621,6.813ZM15.669,6.922C17.705,6.922 19.36,8.468 19.36,10.603C19.36,12.726 17.705,14.283 15.669,14.283C13.633,14.283 11.978,12.726 11.978,10.603C11.978,8.468 13.633,6.922 15.669,6.922ZM23.727,6.922C25.763,6.922 27.418,8.468 27.418,10.603C27.418,12.726 25.763,14.283 23.727,14.283C21.691,14.283 20.036,12.726 20.036,10.603C20.036,8.468 21.691,6.922 23.727,6.922ZM42.129,6.922C44.035,6.922 44.971,8.436 45.276,9.263L45.439,9.677L40.518,11.713C40.899,12.443 41.476,12.824 42.303,12.824C43.131,12.824 43.697,12.421 44.122,11.811L45.374,12.65C44.96,13.249 43.991,14.283 42.303,14.283C40.213,14.283 38.656,12.661 38.656,10.603C38.656,8.414 40.234,6.922 42.129,6.922ZM6.13,2.784C7.873,2.784 9.114,3.47 10.05,4.363L8.94,5.463C8.276,4.832 7.372,4.342 6.13,4.342C3.833,4.342 2.036,6.193 2.036,8.49C2.036,10.788 3.833,12.639 6.13,12.639C7.622,12.639 8.472,12.04 9.016,11.496C9.462,11.049 9.756,10.407 9.865,9.536L6.13,9.536L6.13,7.978L11.39,7.978C11.444,8.262 11.477,8.588 11.477,8.958C11.477,10.134 11.161,11.583 10.127,12.606C9.114,13.652 7.829,14.207 6.13,14.207C2.973,14.207 0.327,11.648 0.327,8.501C0.327,5.343 2.973,2.784 6.13,2.784ZM37.872,3.22L37.872,14.033L36.26,14.033L36.26,3.22L37.872,3.22ZM15.669,8.36C14.548,8.36 13.589,9.263 13.589,10.592C13.589,11.909 14.558,12.824 15.669,12.824C16.78,12.824 17.749,11.909 17.749,10.592C17.749,9.263 16.78,8.36 15.669,8.36ZM23.727,8.36C22.605,8.36 21.647,9.263 21.647,10.592C21.647,11.909 22.616,12.824 23.727,12.824C24.838,12.824 25.807,11.909 25.807,10.592C25.807,9.263 24.848,8.36 23.727,8.36ZM31.763,8.262C30.652,8.262 29.716,9.209 29.716,10.505C29.716,11.79 30.652,12.726 31.763,12.726C32.863,12.726 33.734,11.8 33.723,10.505C33.723,9.209 32.863,8.262 31.763,8.262ZM42.184,8.338C41.356,8.338 40.213,9.067 40.256,10.483L43.545,9.122C43.37,8.654 42.826,8.338 42.184,8.338Z" style="fill:rgb(60,64,67);fill-rule:nonzero;"/>
        </g>
        <g id="Listenon" transform="matrix(2.89999,0,0,2.89999,-142.499,-36.0997)">
            <path d="M44.178,14.2L44.178,13.427L40.782,13.427L40.782,7.034L39.832,7.034L39.832,14.2L44.178,14.2ZM45.906,7.979C46.084,7.979 46.218,7.93 46.31,7.831C46.402,7.733 46.448,7.61 46.448,7.462C46.448,7.314 46.402,7.19 46.31,7.088C46.218,6.986 46.084,6.935 45.906,6.935C45.729,6.935 45.595,6.986 45.505,7.088C45.415,7.19 45.37,7.314 45.37,7.462C45.37,7.61 45.415,7.733 45.505,7.831C45.595,7.93 45.729,7.979 45.906,7.979ZM46.354,14.2L46.354,8.875L45.444,8.875L45.444,14.2L46.354,14.2ZM50.022,14.298C50.629,14.298 51.123,14.155 51.504,13.868C51.884,13.581 52.074,13.199 52.074,12.723C52.074,12.438 52.006,12.196 51.87,11.997C51.734,11.799 51.525,11.629 51.243,11.488C50.96,11.347 50.592,11.226 50.138,11.124C49.683,11.022 49.369,10.915 49.195,10.804C49.021,10.692 48.934,10.527 48.934,10.307C48.934,10.074 49.028,9.885 49.215,9.741C49.402,9.596 49.661,9.524 49.993,9.524C50.314,9.524 50.581,9.614 50.792,9.795C51.004,9.975 51.11,10.19 51.11,10.44L52.025,10.44C52.025,9.954 51.837,9.555 51.462,9.244C51.086,8.932 50.596,8.776 49.993,8.776C49.418,8.776 48.947,8.927 48.577,9.229C48.208,9.531 48.024,9.9 48.024,10.336C48.024,10.599 48.089,10.825 48.218,11.016C48.348,11.206 48.548,11.37 48.819,11.508C49.089,11.646 49.455,11.764 49.916,11.862C50.377,11.961 50.7,12.078 50.886,12.214C51.071,12.35 51.164,12.541 51.164,12.787C51.164,13.02 51.06,13.207 50.851,13.346C50.643,13.486 50.367,13.555 50.022,13.555C49.648,13.555 49.347,13.466 49.119,13.287C48.891,13.108 48.769,12.866 48.752,12.561L47.842,12.561C47.842,12.876 47.934,13.169 48.12,13.44C48.305,13.71 48.562,13.921 48.89,14.072C49.218,14.223 49.595,14.298 50.022,14.298ZM55.068,14.298C55.294,14.298 55.527,14.266 55.767,14.2L55.767,13.462C55.583,13.501 55.439,13.521 55.334,13.521C55.12,13.521 54.97,13.467 54.881,13.361C54.792,13.254 54.748,13.094 54.748,12.881L54.748,9.578L55.742,9.578L55.742,8.875L54.748,8.875L54.748,7.585L53.837,7.585L53.837,8.875L52.868,8.875L52.868,9.578L53.837,9.578L53.837,12.881C53.837,13.334 53.941,13.683 54.148,13.929C54.354,14.175 54.661,14.298 55.068,14.298ZM59.267,14.298C60.16,14.298 60.829,13.956 61.275,13.27L60.719,12.837C60.552,13.053 60.357,13.227 60.134,13.358C59.91,13.49 59.638,13.555 59.317,13.555C58.864,13.555 58.49,13.394 58.197,13.07C57.903,12.747 57.75,12.323 57.737,11.798L61.344,11.798L61.344,11.419C61.344,10.569 61.152,9.916 60.768,9.46C60.385,9.004 59.846,8.776 59.154,8.776C58.731,8.776 58.338,8.893 57.975,9.128C57.613,9.363 57.331,9.687 57.129,10.103C56.927,10.518 56.826,10.989 56.826,11.518L56.826,11.685C56.826,12.479 57.052,13.113 57.505,13.587C57.958,14.061 58.545,14.298 59.267,14.298ZM60.434,11.05L57.766,11.05C57.825,10.568 57.979,10.193 58.229,9.925C58.478,9.658 58.787,9.524 59.154,9.524C59.535,9.524 59.837,9.651 60.06,9.906C60.283,10.16 60.408,10.518 60.434,10.981L60.434,11.05ZM63.56,14.2L63.56,10.405C63.685,10.149 63.859,9.943 64.082,9.785C64.305,9.628 64.564,9.549 64.86,9.549C65.224,9.549 65.492,9.641 65.664,9.824C65.837,10.008 65.924,10.292 65.928,10.676L65.928,14.2L66.838,14.2L66.838,10.681C66.828,9.411 66.261,8.776 65.135,8.776C64.479,8.776 63.947,9.032 63.54,9.544L63.511,8.875L62.65,8.875L62.65,14.2L63.56,14.2ZM73.396,14.298C73.875,14.298 74.299,14.184 74.668,13.954C75.037,13.724 75.321,13.403 75.52,12.992C75.718,12.58 75.818,12.115 75.818,11.596L75.818,11.532C75.818,10.699 75.594,10.031 75.146,9.529C74.698,9.027 74.111,8.776 73.386,8.776C72.917,8.776 72.499,8.889 72.134,9.116C71.768,9.342 71.482,9.664 71.277,10.08C71.072,10.497 70.97,10.966 70.97,11.488L70.97,11.552C70.97,12.379 71.193,13.043 71.641,13.545C72.089,14.047 72.674,14.298 73.396,14.298ZM73.396,13.555C72.937,13.555 72.57,13.376 72.296,13.019C72.022,12.661 71.885,12.187 71.885,11.596C71.885,10.93 72.023,10.418 72.298,10.061C72.574,9.703 72.937,9.524 73.386,9.524C73.846,9.524 74.214,9.706 74.491,10.068C74.768,10.431 74.907,10.904 74.907,11.488C74.907,12.141 74.771,12.649 74.499,13.011C74.226,13.374 73.859,13.555 73.396,13.555ZM78.122,14.2L78.122,10.405C78.247,10.149 78.421,9.943 78.644,9.785C78.867,9.628 79.126,9.549 79.421,9.549C79.786,9.549 80.054,9.641 80.226,9.824C80.398,10.008 80.486,10.292 80.489,10.676L80.489,14.2L81.4,14.2L81.4,10.681C81.39,9.411 80.822,8.776 79.697,8.776C79.041,8.776 78.509,9.032 78.102,9.544L78.073,8.875L77.211,8.875L77.211,14.2L78.122,14.2Z" style="fill:rgb(95,99,104);fill-rule:nonzero;"/>
        </g>
    </g>
</svg>
