<?xml version="1.0" encoding="UTF-8" standalone="no"?>
<!DOCTYPE svg PUBLIC "-//W3C//DTD SVG 1.1//EN" "http://www.w3.org/Graphics/SVG/1.1/DTD/svg11.dtd">
<svg width="100%" height="100%" viewBox="0 0 450 130" version="1.1" xmlns="http://www.w3.org/2000/svg" xmlns:xlink="http://www.w3.org/1999/xlink" xml:space="preserve" xmlns:serif="http://www.serif.com/" style="fill-rule:evenodd;clip-rule:evenodd;stroke-linejoin:round;stroke-miterlimit:2;">
    <g transform="matrix(0.755691,0,0,0.755691,-0.260152,-4.15706)">
        <path d="M588.5,24.9L588.5,158.15C588.5,167.317 580.957,174.86 571.79,174.86L24.4,174.86C15.23,174.86 7.681,167.32 7.67,158.15L7.67,24.9C7.681,15.719 15.239,8.17 24.42,8.17L571.77,8.17C580.948,8.17 588.5,15.722 588.5,24.9Z" style="fill:rgb(1,1,1);fill-rule:nonzero;"/>
    </g>
    <g transform="matrix(0.755691,0,0,0.755691,-0.260152,-4.15706)">
        <path d="M77,124.47C68.32,124.47 59.64,124.47 51,124.56C49.7,124.56 49.93,123.83 49.93,123.09L49.93,63.07C49.93,62.29 49.93,61.76 51.01,61.77C59.69,61.83 68.38,61.83 77.01,61.85C77.485,62.459 77.691,63.236 77.58,64L77.58,122.27C77.693,123.051 77.484,123.846 77,124.47Z" style="fill:rgb(252,217,2);fill-rule:nonzero;"/>
    </g>
    <g transform="matrix(0.755691,0,0,0.755691,-0.260152,-4.15706)">
        <path d="M98.14,61.85L111,61.85C111.47,62.5 111.08,63.12 110.9,63.73C105,83.16 99,102.58 93.12,122C92.993,122.932 92.552,123.792 91.87,124.44L86.23,124.44C85.838,123.969 85.654,123.359 85.72,122.75L85.72,99.83C85.721,99.493 85.765,99.157 85.85,98.83C87.74,95.99 88.3,92.65 89.28,89.48C91.91,81 94.53,72.48 97.07,63.99C97.21,63.188 97.582,62.443 98.14,61.85Z" style="fill:rgb(238,68,36);fill-rule:nonzero;"/>
    </g>
    <g transform="matrix(0.755691,0,0,0.755691,-0.260152,-4.15706)">
        <path d="M91.87,124.46L111,61.85L121.23,61.85C121.64,62.37 121.38,62.9 121.23,63.42C118.17,73.68 114.97,83.9 111.87,94.15C109.2,102.98 106.46,111.79 103.78,120.61C103.37,121.95 103.24,123.44 102.09,124.47L91.87,124.46Z" style="fill:rgb(240,74,37);fill-rule:nonzero;"/>
    </g>
    <g transform="matrix(0.755691,0,0,0.755691,-0.260152,-4.15706)">
        <path d="M86.27,98.43L86.27,124.43L77,124.43L77,61.81L86.18,61.81C86.683,62.405 86.902,63.191 86.78,63.96L86.78,96.19C86.846,96.971 86.668,97.754 86.27,98.43Z" style="fill:rgb(247,143,32);fill-rule:nonzero;"/>
    </g>
    <g transform="matrix(0.755691,0,0,0.755691,-0.260152,-4.15706)">
        <path d="M199.18,140.18L199.18,45.33C199.18,43.81 199.43,43.24 201.11,43.33C204.4,43.48 204.4,43.33 204.4,46.75L204.4,141.91C204.4,143.3 204.16,143.79 202.64,143.74C199.19,143.61 199.18,143.74 199.18,140.18Z" style="fill:rgb(252,252,252);fill-rule:nonzero;"/>
    </g>
    <g transform="matrix(0.755691,0,0,0.755691,-0.260152,-4.15706)">
        <path d="M168.44,61.85L176.7,61.85C177.15,62.52 176.62,63.01 176.33,63.49C169.14,75.49 161.98,87.49 154.71,99.49C150.06,107.14 145.5,114.84 140.88,122.49C140.524,123.245 140.024,123.924 139.41,124.49L131.16,124.49C130.5,123.49 131.34,122.82 131.75,122.13C136.117,114.797 140.49,107.497 144.87,100.23C152.043,88.27 159.22,76.313 166.4,64.36C166.94,63.42 167.28,62.29 168.44,61.85Z" style="fill:rgb(47,179,231);fill-rule:nonzero;"/>
    </g>
    <g transform="matrix(0.755691,0,0,0.755691,-0.260152,-4.15706)">
        <path d="M102.1,124.46L121.24,61.85L127.86,61.85C128.353,62.457 128.447,63.299 128.1,64C127.588,64.725 127.215,65.539 127,66.4C123.14,79.18 119.19,91.94 115.3,104.71C113.54,110.49 111.72,116.26 110.02,122.06C109.894,122.934 109.55,123.763 109.02,124.47L102.1,124.46Z" style="fill:rgb(240,78,39);fill-rule:nonzero;"/>
    </g>
    <g transform="matrix(0.755691,0,0,0.755691,-0.260152,-4.15706)">
        <path d="M127.81,64.11L127.87,61.87L149.64,61.87C150.14,62.72 149.53,63.35 149.16,63.97C142.607,74.823 136.067,85.683 129.54,96.55C128.998,97.313 128.686,98.215 128.64,99.15C128.64,103.76 128.58,108.37 128.69,112.98L128.69,118.62C128.69,120.5 129.22,122.62 128.2,124.46L127.89,124.46C127.15,123.7 127.32,122.72 127.32,121.81L127.32,105.05C127.32,97.57 127.22,90.05 127.32,82.62C127.356,82.071 127.356,81.519 127.32,80.97C127.23,76.09 127.32,71.21 127.32,66.33C127.249,65.557 127.42,64.781 127.81,64.11Z" style="fill:rgb(31,171,226);fill-rule:nonzero;"/>
    </g>
    <g transform="matrix(0.755691,0,0,0.755691,-0.260152,-4.15706)">
        <path d="M128.19,112.62L128.19,98.78C128.191,98.13 128.382,97.493 128.74,96.95C135.493,85.817 142.227,74.67 148.94,63.51C149.216,62.978 149.453,62.426 149.65,61.86L158.89,61.86C159.36,62.86 158.57,63.41 158.19,64.06C150.857,76.32 143.523,88.577 136.19,100.83C134.1,104.32 132.02,107.83 129.9,111.28C129.46,111.89 129.21,112.74 128.19,112.62Z" style="fill:rgb(36,174,228);fill-rule:nonzero;"/>
    </g>
    <g transform="matrix(0.755691,0,0,0.755691,-0.260152,-4.15706)">
        <path d="M251.24,96.45L251.24,106.35C250.781,106.762 250.157,106.939 249.55,106.83C244.36,106.33 239.14,106.12 233.95,105.7C230.177,105.393 226.397,105.14 222.61,104.94C220.61,104.84 218.68,104.49 216.69,104.55C216.186,104.585 215.691,104.403 215.33,104.05L215.33,93.82C215.88,93.3 216.54,93.44 217.2,93.47C224.58,93.88 231.95,94.54 239.33,94.96C242.61,95.15 245.88,95.51 249.16,95.62C249.941,95.577 250.703,95.881 251.24,96.45Z" style="fill:rgb(216,220,94);fill-rule:nonzero;"/>
    </g>
    <g transform="matrix(0.755691,0,0,0.755691,-0.260152,-4.15706)">
        <path d="M251.24,115.92C251.24,118.44 251.24,120.92 251.32,123.49C251.32,124.31 251.15,124.64 250.24,124.64L216.32,124.64C215.58,124.64 215.23,124.5 215.25,123.64C215.31,120.18 215.31,116.73 215.33,113.27C215.863,112.974 216.489,112.892 217.08,113.04C223.21,113.37 229.33,113.85 235.46,114.29C239.34,114.57 243.23,114.85 247.11,115.06C248.53,115.14 250,115.08 251.24,115.92Z" style="fill:rgb(227,228,102);fill-rule:nonzero;"/>
    </g>
    <g transform="matrix(0.755691,0,0,0.755691,-0.260152,-4.15706)">
        <path d="M150,124.47L144,124.47C143.72,123.67 144.24,123.1 144.6,122.47C156.527,102.65 168.457,82.827 180.39,63C180.617,62.56 180.934,62.171 181.32,61.86L186.93,61.86C187.42,62.86 186.68,63.53 186.26,64.23C177.1,79.41 167.957,94.607 158.83,109.82C155.89,114.71 153,119.66 150,124.47Z" style="fill:rgb(62,185,235);fill-rule:nonzero;"/>
    </g>
    <g transform="matrix(0.755691,0,0,0.755691,-0.260152,-4.15706)">
        <path d="M251.24,115.92C245.58,115.49 239.93,115.04 234.24,114.64C232.44,114.51 230.64,114.47 228.84,114.31C224.84,113.95 220.77,113.83 216.74,113.59C216.252,113.525 215.771,113.422 215.3,113.28L215.3,104.04C220.38,104.04 225.42,104.6 230.48,105.04C234.48,105.35 238.48,105.49 242.4,105.74C245.34,105.93 248.27,106.17 251.2,106.39C251.227,109.557 251.24,112.733 251.24,115.92Z" style="fill:rgb(221,224,98);fill-rule:nonzero;"/>
    </g>
    <g transform="matrix(0.755691,0,0,0.755691,-0.260152,-4.15706)">
        <path d="M128.18,124.45L128.18,118.56C131.74,113.27 134.85,107.69 138.18,102.23C146.18,88.997 154.127,75.75 162.02,62.49C162.162,62.256 162.334,62.041 162.53,61.85L168.47,61.85C165.217,67.243 161.963,72.633 158.71,78.02C151.57,89.853 144.453,101.687 137.36,113.52C135.36,116.81 133.43,120.1 131.44,123.38C131.237,123.706 131.136,124.086 131.15,124.47L128.18,124.45Z" style="fill:rgb(39,176,229);fill-rule:nonzero;"/>
    </g>
    <g transform="matrix(0.755691,0,0,0.755691,-0.260152,-4.15706)">
        <path d="M161.52,124.47L154.91,124.47C154.4,123.29 155.28,122.47 155.78,121.65C158.847,116.51 161.933,111.383 165.04,106.27C172.04,94.75 179.04,83.27 185.83,71.68C186.27,70.94 186.48,69.68 187.83,70.05L187.83,80.95C184.38,87.08 180.64,93.04 177.05,99.09C172.24,107.17 167.34,115.19 162.56,123.28C162.352,123.779 161.987,124.197 161.52,124.47Z" style="fill:rgb(82,190,237);fill-rule:nonzero;"/>
    </g>
    <g transform="matrix(0.755691,0,0,0.755691,-0.260152,-4.15706)">
        <path d="M251.24,96.45L242.93,95.79L225.93,94.49C224.35,94.37 222.78,94.4 221.19,94.22C219.25,94 217.26,94.08 215.31,93.81L215.31,84.57C215.819,84.132 216.501,83.951 217.16,84.08C222.3,84.56 227.45,84.84 232.6,85.22C236.38,85.5 240.15,85.8 243.94,85.99C245.94,86.09 247.87,86.44 249.86,86.38C250.364,86.344 250.86,86.526 251.22,86.88L251.24,96.45Z" style="fill:rgb(209,216,90);fill-rule:nonzero;"/>
    </g>
    <g transform="matrix(0.755691,0,0,0.755691,-0.260152,-4.15706)">
        <path d="M187.88,70C186.97,70 186.76,70.86 186.43,71.42C182.85,77.42 179.35,83.42 175.77,89.32C169.93,99.02 164.04,108.68 158.21,118.39C157.03,120.39 155.6,122.19 154.92,124.39L149.92,124.39C150.15,122.5 151.47,121.15 152.38,119.62C161.233,104.847 170.107,90.07 179,75.29C181.31,71.44 183.69,67.63 186,63.78C186.332,63.155 186.625,62.51 186.88,61.85C187.66,61.64 187.93,61.92 187.88,62.74C187.89,65.17 187.9,67.61 187.88,70Z" style="fill:rgb(71,187,236);fill-rule:nonzero;"/>
    </g>
    <g transform="matrix(0.755691,0,0,0.755691,-0.260152,-4.15706)">
        <path d="M181.31,61.85C180.08,64.92 178.11,67.58 176.44,70.39C171.13,79.33 165.71,88.2 160.35,97.11C155.243,105.597 150.15,114.093 145.07,122.6C144.7,123.21 144.37,123.84 144.07,124.46L139.4,124.46C140.773,121.664 142.33,118.961 144.06,116.37C150.687,105.283 157.333,94.21 164,83.15C168.12,76.297 172.233,69.443 176.34,62.59C176.461,62.351 176.565,62.104 176.65,61.85L181.31,61.85Z" style="fill:rgb(54,182,233);fill-rule:nonzero;"/>
    </g>
    <g transform="matrix(0.755691,0,0,0.755691,-0.260152,-4.15706)">
        <path d="M127.81,64.11L127.81,80.95C125.88,87.19 124.01,93.44 122.1,99.68C119.653,107.68 117.217,115.657 114.79,123.61C114.706,123.928 114.544,124.22 114.32,124.46L109,124.46C109.39,122.071 110.016,119.726 110.87,117.46C114.41,105.76 118.04,94.09 121.62,82.41C123.32,76.86 124.97,71.29 126.62,65.74C126.9,65.14 126.88,64.29 127.81,64.11Z" style="fill:rgb(240,83,42);fill-rule:nonzero;"/>
    </g>
    <g transform="matrix(0.755691,0,0,0.755691,-0.260152,-4.15706)">
        <path d="M215.34,74.34L215.34,66.42C217.052,66.061 218.817,66.031 220.54,66.33C226.28,66.77 232.03,67.15 237.77,67.54C241.44,67.79 245.1,68.12 248.77,68.29C249.659,68.238 250.538,68.512 251.24,69.06L251.24,76.65C250.731,77.088 250.049,77.269 249.39,77.14C244.14,76.65 238.88,76.37 233.62,75.99C228.36,75.61 222.89,75.22 217.52,74.88C216.752,74.981 215.973,74.788 215.34,74.34Z" style="fill:rgb(198,208,83);fill-rule:nonzero;"/>
    </g>
    <g transform="matrix(0.755691,0,0,0.755691,-0.260152,-4.15706)">
        <path d="M114.32,124.46C114.24,122.37 115.26,120.54 115.83,118.62C118.83,108.67 121.89,98.77 124.93,88.85C125.52,86.92 126.06,84.97 126.67,83.05C126.91,82.29 127.01,81.41 127.82,80.95L127.82,105.04C126.21,110.77 124.32,116.41 122.66,122.12C122.537,122.99 122.165,123.806 121.59,124.47L114.32,124.46Z" style="fill:rgb(241,89,45);fill-rule:nonzero;"/>
    </g>
    <g transform="matrix(0.755691,0,0,0.755691,-0.260152,-4.15706)">
        <path d="M86.27,98.43L86.27,61.85L98.14,61.85C96.89,66.1 95.65,70.35 94.37,74.59C92.12,82.03 89.83,89.45 87.58,96.89C87.429,97.59 86.936,98.169 86.27,98.43Z" style="fill:rgb(239,65,36);fill-rule:nonzero;"/>
    </g>
    <g transform="matrix(0.755691,0,0,0.755691,-0.260152,-4.15706)">
        <path d="M161.52,124.47C165.69,116.94 170.31,109.69 174.68,102.28C178.44,95.92 182.28,89.6 186.09,83.28C186.48,82.37 187.092,81.573 187.87,80.96L187.87,90.53C185.4,95.26 182.49,99.73 179.76,104.31C176.073,110.497 172.37,116.67 168.65,122.83C168.351,123.547 167.804,124.132 167.11,124.48L161.52,124.47Z" style="fill:rgb(96,194,238);fill-rule:nonzero;"/>
    </g>
    <g transform="matrix(0.755691,0,0,0.755691,-0.260152,-4.15706)">
        <path d="M162.5,61.85C162.24,63.79 160.88,65.18 159.94,66.75C153.17,78.14 146.32,89.49 139.5,100.85C136.167,106.437 132.833,112.03 129.5,117.63C129.276,118.146 128.789,118.502 128.23,118.56L128.23,112.62C130.01,110.93 130.93,108.62 132.16,106.62C140.72,92.447 149.243,78.24 157.73,64C158.15,63.3 158.49,62.56 158.87,61.84L162.5,61.85Z" style="fill:rgb(39,176,229);fill-rule:nonzero;"/>
    </g>
    <g transform="matrix(0.755691,0,0,0.755691,-0.260152,-4.15706)">
        <path d="M251.24,69.06C245.693,68.633 240.147,68.207 234.6,67.78C232.75,67.64 230.9,67.65 229.04,67.47C225.04,67.07 220.97,66.98 216.94,66.74C216.4,66.671 215.865,66.564 215.34,66.42C215.06,62.02 215.06,62.02 219.34,62.02L249.69,62.02C250.98,62.02 251.41,62.34 251.32,63.65C251.2,65.43 251.26,67.25 251.24,69.06Z" style="fill:rgb(194,205,80);fill-rule:nonzero;"/>
    </g>
    <g transform="matrix(0.755691,0,0,0.755691,-0.260152,-4.15706)">
        <path d="M251.24,86.88C244.64,86.77 238.07,86.11 231.5,85.59C227.7,85.29 223.88,85.09 220.07,84.92C218.49,84.85 216.94,84.36 215.34,84.58L215.34,79.3C215.89,78.78 216.55,78.92 217.21,78.96C224.59,79.38 231.95,80.03 239.32,80.45C242.6,80.64 245.87,80.96 249.15,81.13C249.93,81.109 250.687,81.4 251.25,81.94C251.243,83.58 251.24,85.227 251.24,86.88Z" style="fill:rgb(206,214,88);fill-rule:nonzero;"/>
    </g>
    <g transform="matrix(0.755691,0,0,0.755691,-0.260152,-4.15706)">
        <path d="M251.24,81.93C246.4,81.48 241.55,81.23 236.71,80.93C230.4,80.49 224.09,79.93 217.77,79.64C216.973,79.454 216.158,79.35 215.34,79.33L215.34,74.33C220.34,74.39 225.24,74.87 230.19,75.33C234.19,75.66 238.14,75.78 242.11,76.03C245.11,76.22 248.2,76.46 251.24,76.68L251.24,81.93Z" style="fill:rgb(202,211,85);fill-rule:nonzero;"/>
    </g>
    <g transform="matrix(0.755691,0,0,0.755691,-0.260152,-4.15706)">
        <path d="M167.13,124.47C170.71,118.523 174.29,112.577 177.87,106.63C180.87,101.57 183.92,96.49 186.97,91.44C187.236,91.098 187.541,90.79 187.88,90.52L187.88,99.1C183.48,106.36 179.14,113.66 174.73,120.91C174.12,122.198 173.336,123.395 172.4,124.47L167.13,124.47Z" style="fill:rgb(109,197,238);fill-rule:nonzero;"/>
    </g>
    <g transform="matrix(0.755691,0,0,0.755691,-0.260152,-4.15706)">
        <path d="M195.13,93L195.13,62.32C195.13,61.94 195.25,61.8 195.61,61.81C195.97,61.82 196.3,61.81 196.32,62.27C196.34,62.73 196.32,63.15 196.32,63.59L196.32,123.81C196.32,124.15 196.27,124.56 195.72,124.58C195.17,124.6 195.09,124.29 195.11,123.86C195.13,123.43 195.11,123.09 195.11,122.71C195.123,112.79 195.13,102.887 195.13,93Z" style="fill:rgb(234,233,233);fill-rule:nonzero;"/>
    </g>
    <g transform="matrix(0.755691,0,0,0.755691,-0.260152,-4.15706)">
        <path d="M207.54,93.16L207.54,62.48C207.54,62.1 207.71,61.79 208.21,61.79C208.71,61.79 208.75,62.19 208.75,62.58L208.75,123.95C208.75,124.29 208.64,124.58 208.2,124.57C207.76,124.56 207.56,124.46 207.55,124.03C207.54,123.6 207.55,123.15 207.55,122.71C207.543,112.85 207.54,103 207.54,93.16Z" style="fill:rgb(234,233,233);fill-rule:nonzero;"/>
    </g>
    <g transform="matrix(0.755691,0,0,0.755691,-0.260152,-4.15706)">
        <path d="M172.4,124.47C173.65,121.36 175.66,118.68 177.34,115.81C180.34,110.81 183.34,105.81 186.34,100.81C186.688,100.128 187.2,99.544 187.83,99.11L187.83,104C184.07,110.42 180.16,116.76 176.37,123.17C176.118,123.649 175.779,124.076 175.37,124.43L172.4,124.47Z" style="fill:rgb(118,199,238);fill-rule:nonzero;"/>
    </g>
    <g transform="matrix(0.755691,0,0,0.755691,-0.260152,-4.15706)">
        <path d="M121.58,124.46C122.46,120.46 123.87,116.71 124.98,112.82C125.59,110.66 126.32,108.54 126.98,106.4C127.14,105.9 127.17,105.29 127.78,105.03L127.84,124.44L121.58,124.46Z" style="fill:rgb(241,94,48);fill-rule:nonzero;"/>
    </g>
    <g transform="matrix(0.755691,0,0,0.755691,-0.260152,-4.15706)">
        <path d="M183,124.47L178.38,124.47C177.86,123.86 178.24,123.33 178.55,122.82C181.117,118.48 183.71,114.147 186.33,109.82C186.68,109.25 187,108.5 187.92,108.63L187.92,116.22C186.465,119.076 184.821,121.832 183,124.47Z" style="fill:rgb(136,203,238);fill-rule:nonzero;"/>
    </g>
    <g transform="matrix(0.755691,0,0,0.755691,-0.260152,-4.15706)">
        <path d="M187.88,108.67C186.39,109.89 185.74,111.67 184.77,113.26C182.71,116.62 180.69,120.01 178.64,123.38C178.436,123.706 178.335,124.086 178.35,124.47L175.35,124.47C176.48,121.73 178.27,119.36 179.73,116.81C181.95,112.92 184.31,109.11 186.64,105.28C186.93,104.8 187.14,104.15 187.86,104.05L187.88,108.67Z" style="fill:rgb(126,201,238);fill-rule:nonzero;"/>
    </g>
    <g transform="matrix(0.755691,0,0,0.755691,-0.260152,-4.15706)">
        <path d="M183,124.47C184.233,121.511 185.887,118.746 187.91,116.26C187.91,118.71 187.91,121.16 187.99,123.61C187.99,124.31 187.81,124.61 187.08,124.55C185.69,124.48 184.32,124.49 183,124.47Z" style="fill:rgb(149,206,239);fill-rule:nonzero;"/>
    </g>
    <g transform="matrix(0.755691,0,0,0.755691,-0.260152,-4.15706)">
        <path d="M449.39,114.39L449.39,98.39C449.39,97.54 449.61,97.3 450.46,97.33C452.33,97.4 454.2,97.4 456.06,97.33C456.96,97.33 457.24,97.53 457.22,98.47C457.16,102.12 457.22,105.78 457.22,109.47C457.22,110.25 457.4,110.47 458.22,110.47C462.487,110.43 466.75,110.43 471.01,110.47C471.8,110.47 471.93,110.23 471.93,109.47L471.93,98.38C471.93,97.54 472.12,97.28 472.99,97.31C474.94,97.38 476.89,97.31 478.84,97.31C479.53,97.31 479.74,97.51 479.74,98.21L479.74,130.49C479.74,131.24 479.53,131.49 478.74,131.49C476.79,131.49 474.84,131.43 472.89,131.49C472.09,131.49 471.89,131.28 471.89,130.49L471.89,118.43C471.89,117.62 471.66,117.43 470.89,117.43L458.22,117.43C457.32,117.43 457.22,117.72 457.22,118.53L457.22,130.35C457.22,131.28 456.97,131.53 456.06,131.49C454.19,131.42 452.32,131.42 450.46,131.49C449.62,131.49 449.38,131.3 449.38,130.43C449.41,125.11 449.39,119.75 449.39,114.39Z" style="fill:white;fill-rule:nonzero;"/>
    </g>
    <g transform="matrix(0.755691,0,0,0.755691,-0.260152,-4.15706)">
        <path d="M488.7,114.46L488.7,98.62C488.7,97.72 488.84,97.36 489.87,97.37C496.897,97.423 503.923,97.423 510.95,97.37C511.95,97.37 512.11,97.67 512.07,98.55C512,100.05 512,101.55 512.07,103.06C512.07,103.96 511.88,104.24 510.94,104.23C506.51,104.18 502.08,104.23 497.66,104.23C496.71,104.23 496.41,104.46 496.46,105.42C496.536,106.922 496.536,108.428 496.46,109.93C496.46,110.71 496.69,110.87 497.46,110.86L507.46,110.86C508.37,110.86 508.66,111.09 508.61,112.01C508.53,113.51 508.55,115.01 508.61,116.52C508.61,117.28 508.38,117.52 507.61,117.52L497.5,117.52C496.72,117.52 496.45,117.7 496.5,118.52C496.57,120.26 496.58,122.02 496.5,123.76C496.5,124.66 496.78,124.76 497.59,124.76L512.09,124.76C513.02,124.76 513.28,125.01 513.23,125.92C513.151,127.422 513.151,128.928 513.23,130.43C513.29,131.43 513.01,131.73 511.98,131.72C505.85,131.67 499.71,131.72 493.58,131.72C492.32,131.72 491.06,131.67 489.8,131.72C488.92,131.77 488.73,131.44 488.73,130.62C488.72,125.1 488.7,119.78 488.7,114.46Z" style="fill:white;fill-rule:nonzero;"/>
    </g>
    <g transform="matrix(0.755691,0,0,0.755691,-0.260152,-4.15706)">
        <path d="M314.25,106C312.426,104.358 310.144,103.311 307.71,103C306.535,102.864 305.346,103.099 304.31,103.67C302.02,104.97 301.96,107.37 304.19,108.79C305.743,109.681 307.432,110.31 309.19,110.65C312.34,111.43 315.35,112.5 317.45,115.15C318.858,116.935 319.625,119.144 319.625,121.418C319.625,125.006 317.716,128.336 314.62,130.15C310.14,132.89 305.33,132.88 300.43,131.49C297.693,130.704 295.199,129.238 293.18,127.23C292.74,126.81 292.71,126.57 293.18,126.11C294.513,124.743 295.8,123.337 297.04,121.89C297.52,121.34 297.78,121.4 298.27,121.89C300.24,123.903 302.85,125.169 305.65,125.47C307.03,125.621 308.42,125.297 309.59,124.55C310.623,124.012 311.274,122.939 311.274,121.774C311.274,120.554 310.559,119.44 309.45,118.93C307.557,117.944 305.538,117.221 303.45,116.78C300.17,115.91 297.3,114.42 295.66,111.29C294.949,109.91 294.577,108.38 294.577,106.827C294.577,102.779 297.101,99.134 300.89,97.71C306.96,95.4 312.81,96.09 318,100.33C318.66,100.87 318.79,101.26 318.12,101.94C316.74,103.24 315.52,104.66 314.25,106Z" style="fill:white;fill-rule:nonzero;"/>
    </g>
    <g transform="matrix(0.755691,0,0,0.755691,-0.260152,-4.15706)">
        <path d="M429.23,96.53C434.16,96.48 438.857,98.661 442,102.46C442.51,103.08 442.56,103.46 441.92,103.99C440.59,105.18 439.33,106.45 438.07,107.72C437.56,108.24 437.27,108.36 436.71,107.66C434.86,105.137 431.912,103.644 428.784,103.644C423.75,103.644 419.488,107.51 419,112.52C418.61,116.03 419.15,119.33 421.66,122.01C425.544,125.894 431.904,125.979 435.89,122.2C436.49,121.62 436.99,120.52 437.68,120.58C438.37,120.64 438.97,121.58 439.61,122.16C440.51,122.97 441.37,123.85 442.32,124.6C443.07,125.18 442.7,125.6 442.32,126.04C438.261,130.786 432.025,133.11 425.85,132.18C418.34,131.18 413.02,126.5 411.37,119.18C409.56,111.09 412.46,102.62 420.03,98.6C422.878,97.161 426.04,96.45 429.23,96.53Z" style="fill:white;fill-rule:nonzero;"/>
    </g>
    <g transform="matrix(0.755691,0,0,0.755691,-0.260152,-4.15706)">
        <path d="M393,97.39L406.76,97.39C407.76,97.39 408,97.68 407.95,98.62C407.88,100.16 407.88,101.71 407.95,103.25C407.95,104.09 407.75,104.36 406.88,104.34C403.88,104.28 400.95,104.34 397.99,104.34C397.11,104.34 396.94,104.58 396.94,105.42L396.94,130.27C396.94,131.35 396.68,131.67 395.6,131.61C393.858,131.519 392.112,131.519 390.37,131.61C389.37,131.61 389.09,131.42 389.1,130.38C389.15,122.26 389.1,114.14 389.1,106.02C389.1,104.38 389.1,104.38 387.42,104.38L379.14,104.38C378.33,104.38 377.98,104.23 378.02,103.33C378.09,101.71 378.08,100.08 378.02,98.46C378.02,97.66 378.25,97.46 379.02,97.46C383.74,97.41 388.37,97.39 393,97.39Z" style="fill:white;fill-rule:nonzero;"/>
    </g>
    <g transform="matrix(0.755691,0,0,0.755691,-0.260152,-4.15706)">
        <path d="M340,97.39L353.88,97.39C354.68,97.39 354.88,97.6 354.88,98.39C354.82,100.05 354.82,101.72 354.88,103.39C354.88,104.13 354.71,104.39 353.94,104.34L344.94,104.34C344.08,104.34 343.88,104.56 343.88,105.41L343.88,130.41C343.88,131.47 343.58,131.68 342.6,131.63C340.815,131.537 339.025,131.537 337.24,131.63C336.17,131.69 336.02,131.31 336.02,130.35L336.02,105.63C336.02,104.63 335.82,104.34 334.78,104.37C331.86,104.45 328.93,104.37 326.01,104.37C325.25,104.37 324.94,104.23 325.01,103.37C325.08,101.71 325.09,100.04 325.01,98.37C325.01,97.5 325.33,97.37 326.01,97.37C330.7,97.4 335.33,97.39 340,97.39Z" style="fill:white;fill-rule:nonzero;"/>
    </g>
    <g transform="matrix(0.755691,0,0,0.755691,-0.260152,-4.15706)">
        <path d="M370.45,114.51L370.45,130.51C370.45,131.38 370.21,131.59 369.37,131.56C367.5,131.5 365.63,131.56 363.77,131.56C363.02,131.56 362.72,131.42 362.72,130.56L362.72,98.39C362.72,97.54 363.02,97.39 363.77,97.39C365.64,97.39 367.51,97.45 369.37,97.39C370.21,97.39 370.46,97.58 370.45,98.45C370.43,103.79 370.45,109.15 370.45,114.51Z" style="fill:white;fill-rule:nonzero;"/>
    </g>
    <g transform="matrix(0.755691,0,0,0.755691,-0.260152,-4.15706)">
        <path d="M554.5,99L554.5,102.36C554.5,102.65 554.5,102.95 554.08,102.91C553.66,102.87 553.77,102.5 553.77,102.26L553.77,98.26C553.77,97.99 553.55,97.55 554.11,97.52C554.67,97.49 554.86,97.52 555.04,98.03C555.46,99.29 555.98,100.51 556.54,101.92L557.93,98.17C558.08,97.78 558.24,97.45 558.78,97.5C559.32,97.55 559.24,98.06 559.25,98.41L559.25,102.31C559.25,102.57 559.33,102.93 558.88,102.91C558.43,102.89 558.54,102.54 558.53,102.28C558.557,101.252 558.483,100.224 558.31,99.21C557.94,100.15 557.59,101.09 557.21,102.02C557.07,102.37 557.12,102.88 556.57,102.92C556.02,102.96 555.96,102.34 555.81,101.98C555.39,100.98 555.05,99.98 554.68,98.98L554.5,99Z" style="fill:rgb(244,243,243);fill-rule:nonzero;"/>
    </g>
    <g transform="matrix(0.755691,0,0,0.755691,-0.260152,-4.15706)">
        <path d="M549.89,100.54C549.862,100.094 549.862,99.646 549.89,99.2C549.99,98.37 549.73,97.99 548.89,98.12C548.61,98.12 548.15,98.25 548.2,97.73C548.25,97.21 548.65,97.48 548.89,97.48L552.06,97.48C552.29,97.48 552.59,97.48 552.58,97.8C552.57,98.12 552.28,98.17 552.05,98.13C550.75,97.87 550.71,98.65 550.76,99.6C550.81,100.55 550.76,101.39 550.76,102.28C550.76,102.56 550.76,102.87 550.38,102.9C550,102.93 549.92,102.57 549.92,102.25C549.88,101.68 549.89,101.11 549.89,100.54Z" style="fill:rgb(227,226,225);fill-rule:nonzero;"/>
    </g>
    <g transform="matrix(0.755691,0,0,0.755691,-0.260152,-4.15706)">
        <path d="M539.64,118.7C539.31,118.11 539.27,117.83 539.93,117.38C544.047,114.582 545.815,109.351 544.24,104.63C542.99,100.49 538.98,97.63 534.12,97.5C529.78,97.4 525.44,97.44 521.12,97.38C520.34,97.38 520.12,97.55 520.12,98.38L520.12,130.41C520.12,131.16 520.12,131.59 521.12,131.54C522.98,131.45 524.86,131.47 526.72,131.54C527.6,131.54 527.72,131.2 527.72,130.47L527.72,122.07C527.72,121.07 527.26,119.75 527.94,119.17C528.62,118.59 529.8,119.08 530.76,118.98C531.526,118.853 532.274,119.325 532.49,120.07C534.2,123.59 535.99,127.07 537.77,130.57C537.99,131.01 538.1,131.57 538.84,131.57L546.84,131.57C544.3,127.09 542,122.89 539.64,118.7ZM533.24,112.63C531.59,112.8 529.92,112.7 528.24,112.75C527.62,112.75 527.63,112.4 527.63,111.97L527.63,104.53C527.63,103.93 527.81,103.77 528.39,103.79L532.9,103.79C535.142,103.844 536.944,105.728 536.9,107.97C537,110.53 535.59,112.4 533.23,112.64L533.24,112.63Z" style="fill:white;fill-rule:nonzero;"/>
    </g>
    <g transform="matrix(0.755691,0,0,0.755691,-0.260152,-4.15706)">
        <path d="M295.83,52.58L301.07,52.58L301.07,76.89L312.87,76.89L312.87,81.28L295.87,81.28L295.83,52.58Z" style="fill:white;fill-rule:nonzero;"/>
    </g>
    <g transform="matrix(0.755691,0,0,0.755691,-0.260152,-4.15706)">
        <path d="M322.19,54.75C322.191,54.78 322.191,54.81 322.191,54.84C322.191,56.453 320.864,57.78 319.251,57.78C317.639,57.78 316.311,56.453 316.311,54.84C316.311,53.228 317.638,51.901 319.25,51.9C319.297,51.898 319.344,51.896 319.391,51.896C320.927,51.896 322.191,53.16 322.191,54.696C322.191,54.714 322.19,54.732 322.19,54.75ZM316.61,81.28L316.61,60.54L321.85,60.54L321.85,81.28L316.61,81.28Z" style="fill:white;fill-rule:nonzero;"/>
    </g>
    <g transform="matrix(0.755691,0,0,0.755691,-0.260152,-4.15706)">
        <path d="M327.3,76.43C328.904,77.379 330.718,77.918 332.58,78C334.88,78 335.9,77 335.9,75.66C335.9,74.32 335.05,73.57 332.49,72.66C328.49,71.3 326.78,69.08 326.78,66.66C326.78,63 329.78,60.19 334.62,60.19C336.538,60.151 338.438,60.573 340.16,61.42L339.1,65C337.76,64.241 336.25,63.832 334.71,63.81C332.84,63.81 331.81,64.75 331.81,66.02C331.81,67.29 332.81,67.94 335.43,68.92C339.22,70.24 340.92,72.16 340.97,75.22C340.97,79.01 338.03,81.74 332.54,81.74C330.353,81.779 328.19,81.281 326.24,80.29L327.3,76.43Z" style="fill:white;fill-rule:nonzero;"/>
    </g>
    <g transform="matrix(0.755691,0,0,0.755691,-0.260152,-4.15706)">
        <path d="M351.28,55.22L351.28,60.54L356.28,60.54L356.28,64.46L351.28,64.46L351.28,73.62C351.28,76.18 351.96,77.45 353.96,77.45C354.633,77.479 355.307,77.408 355.96,77.24L356.04,81.24C354.816,81.634 353.535,81.82 352.25,81.79C350.576,81.879 348.939,81.262 347.74,80.09C346.59,78.9 346.08,76.98 346.08,74.26L346.08,64.46L343.14,64.46L343.14,60.54L346.08,60.54L346.08,56.67L351.28,55.22Z" style="fill:white;fill-rule:nonzero;"/>
    </g>
    <g transform="matrix(0.755691,0,0,0.755691,-0.260152,-4.15706)">
        <path d="M363.67,72.38C363.8,76.13 366.67,77.75 370.06,77.75C372.017,77.776 373.963,77.458 375.81,76.81L376.58,80.39C374.279,81.307 371.817,81.756 369.34,81.71C362.61,81.71 358.65,77.58 358.65,71.23C358.65,65.48 362.14,60.07 368.79,60.07C375.44,60.07 377.73,65.61 377.73,70.16C377.737,70.9 377.68,71.64 377.56,72.37L363.67,72.38ZM372.78,68.72C372.78,66.8 371.97,63.65 368.48,63.65C365.24,63.65 363.88,66.59 363.67,68.72L372.78,68.72Z" style="fill:white;fill-rule:nonzero;"/>
    </g>
    <g transform="matrix(0.755691,0,0,0.755691,-0.260152,-4.15706)">
        <path d="M381.94,66.72C381.94,64.34 381.86,62.33 381.77,60.54L386.33,60.54L386.59,63.65L386.72,63.65C388.144,61.371 390.673,60.007 393.36,60.07C396.98,60.07 400.73,62.41 400.73,68.97L400.73,81.28L395.49,81.28L395.49,69.57C395.49,66.57 394.38,64.33 391.49,64.33C389.616,64.375 387.966,65.613 387.4,67.4C387.217,67.934 387.129,68.496 387.14,69.06L387.14,81.28L381.9,81.28L381.94,66.72Z" style="fill:white;fill-rule:nonzero;"/>
    </g>
    <g transform="matrix(0.755691,0,0,0.755691,-0.260152,-4.15706)">
        <path d="M434.83,70.72C434.83,78.34 429.46,81.72 424.18,81.72C418.35,81.72 413.79,77.72 413.79,71.03C413.79,64.34 418.26,60.03 424.52,60.03C430.78,60.03 434.83,64.42 434.83,70.72ZM419.2,70.93C419.2,74.93 421.2,77.93 424.35,77.93C427.35,77.93 429.42,75.03 429.42,70.82C429.42,67.58 427.97,63.82 424.42,63.82C420.87,63.82 419.21,67.48 419.21,70.93L419.2,70.93Z" style="fill:white;fill-rule:nonzero;"/>
    </g>
    <g transform="matrix(0.755691,0,0,0.755691,-0.260152,-4.15706)">
        <path d="M439.14,66.72C439.14,64.34 439.06,62.33 438.97,60.54L443.53,60.54L443.79,63.65L443.92,63.65C445.344,61.371 447.873,60.007 450.56,60.07C454.18,60.07 457.93,62.41 457.93,68.97L457.93,81.28L452.69,81.28L452.69,69.57C452.69,66.57 451.58,64.33 448.69,64.33C446.816,64.375 445.166,65.613 444.6,67.4C444.417,67.934 444.329,68.496 444.34,69.06L444.34,81.28L439.1,81.28L439.14,66.72Z" style="fill:white;fill-rule:nonzero;"/>
    </g>
</svg>
