<?xml version="1.0" encoding="UTF-8" standalone="no"?>
<!DOCTYPE svg PUBLIC "-//W3C//DTD SVG 1.1//EN" "http://www.w3.org/Graphics/SVG/1.1/DTD/svg11.dtd">
<svg width="100%" height="100%" viewBox="0 0 450 110" version="1.1" xmlns="http://www.w3.org/2000/svg" xmlns:xlink="http://www.w3.org/1999/xlink" xml:space="preserve" xmlns:serif="http://www.serif.com/" style="fill-rule:evenodd;clip-rule:evenodd;">
    <g transform="matrix(0.65865,0,0,0.65865,7.64553,1.85346)">
        <g id="spotify-podcast-badge-blk-grn-660x160">
            <g id="Group-2">
                <path id="Path" d="M621.849,0.5L38.172,0.5C36.948,0.5 36.408,0.5 35.731,0.501C35.032,0.503 34.4,0.505 33.792,0.508C33.437,0.51 33.068,0.514 32.666,0.519C32.184,0.525 31.825,0.531 30.916,0.545C30.518,0.552 30.343,0.555 30.123,0.558C26.994,0.636 24.526,0.837 22.174,1.258C19.492,1.727 17.057,2.525 14.705,3.719C12.356,4.921 10.209,6.483 8.349,8.344C6.485,10.187 4.925,12.335 3.725,14.701C2.536,17.024 1.743,19.461 1.27,22.176C0.843,24.517 0.641,26.966 0.56,30.109C0.544,30.649 0.533,31.203 0.524,31.942C0.521,32.124 0.52,32.269 0.516,32.596C0.509,33.19 0.505,33.455 0.5,33.777L0.5,125.354C0.5,125.794 0.5,125.794 0.5,126.227C0.505,126.56 0.509,126.817 0.516,127.42C0.52,127.741 0.521,127.883 0.524,128.062C0.533,128.8 0.544,129.356 0.56,129.909C0.641,133.05 0.843,135.499 1.27,137.844C1.745,140.563 2.54,143.01 3.726,145.32C4.929,147.683 6.492,149.828 8.352,151.652C10.204,153.52 12.349,155.08 14.705,156.274C17.025,157.462 19.45,158.258 22.176,158.75C24.498,159.166 26.905,159.36 30.121,159.449C31.409,159.478 32.613,159.492 33.792,159.492C34.4,159.495 35.032,159.497 35.731,159.499C36.408,159.5 36.948,159.5 38.172,159.5L621.85,159.5C622.931,159.5 623.415,159.5 624.019,159.499C624.817,159.498 625.52,159.496 626.189,159.492C627.371,159.492 628.614,159.477 629.866,159.449C633.097,159.36 635.496,159.167 637.798,158.75C640.523,158.258 642.954,157.464 645.3,156.273C647.653,155.078 649.797,153.518 651.65,151.648C653.492,149.834 655.057,147.691 656.285,145.321C657.469,142.981 658.264,140.525 658.719,137.838C659.143,135.559 659.335,133.268 659.453,129.916C659.46,129.337 659.465,128.74 659.467,128.067C659.468,127.56 659.469,127.156 659.469,126.224C659.475,125.939 659.48,125.648 659.484,125.347C659.497,124.384 659.5,123.615 659.5,121.859L659.5,38.144C659.5,35.957 659.495,34.991 659.469,33.777C659.469,32.857 659.468,32.448 659.467,31.937C659.465,31.263 659.46,30.668 659.453,30.111C659.335,26.747 659.143,24.456 658.717,22.169C658.266,19.499 657.473,17.052 656.287,14.702C655.062,12.328 653.5,10.181 651.647,8.341C649.792,6.485 647.645,4.921 645.302,3.72C642.922,2.523 640.48,1.726 637.798,1.257C635.468,0.836 633.009,0.636 629.872,0.558C629.521,0.552 629.521,0.552 629.168,0.546C628.634,0.538 628.349,0.533 628.027,0.528C627.324,0.518 626.74,0.511 626.187,0.507C625.525,0.504 624.828,0.502 624.037,0.501C623.428,0.5 622.941,0.5 621.849,0.5Z" style="stroke:rgb(34,35,38);stroke-width:1px;"/>
                <path id="Combined-Shape" d="M357.39,74.667C359.462,75.907 362.148,75.218 363.38,73.129C364.612,71.044 363.93,68.346 361.852,67.105C344.507,56.752 317.061,55.779 300.55,60.818C298.239,61.525 296.936,63.979 297.636,66.302C298.336,68.625 300.779,69.936 303.088,69.231C317.471,64.842 342.323,65.669 357.39,74.667ZM356.897,87.993C357.95,86.272 357.411,84.016 355.698,82.955C341.271,74.04 320.167,71.531 303.19,76.711C301.267,77.3 300.18,79.343 300.761,81.281C301.346,83.215 303.381,84.308 305.309,83.722C320.169,79.186 339.323,81.435 351.884,89.199C353.597,90.258 355.84,89.717 356.897,87.993ZM351.177,100.791C352.017,99.41 351.585,97.606 350.211,96.762C337.891,89.192 322.618,87.43 304.813,91.523C303.242,91.883 302.263,93.454 302.622,95.031C302.98,96.607 304.542,97.595 306.11,97.233C322.38,93.496 336.195,95.02 347.172,101.765C348.544,102.61 350.338,102.175 351.177,100.791ZM329.742,33C355.556,33 376.482,54.042 376.482,79.999C376.482,105.959 355.556,127 329.742,127C303.927,127 283,105.959 283,79.999C283,54.042 303.927,33 329.742,33ZM410.167,76.389C419.999,78.793 424.009,82.526 424.009,89.274C424.009,97.259 417.941,102.418 408.551,102.418C401.914,102.418 395.764,100.046 390.762,95.557C390.548,95.367 390.525,95.04 390.71,94.82L395.129,89.533C395.219,89.423 395.349,89.357 395.491,89.345C395.626,89.337 395.772,89.38 395.879,89.472C400.177,93.215 404.02,94.811 408.73,94.811C412.971,94.811 415.607,92.965 415.607,89.997C415.607,87.317 414.304,85.82 406.581,84.031C397.508,81.826 392.257,78.969 392.257,70.901C392.257,63.378 398.344,58.119 407.058,58.119C412.984,58.119 418.054,59.886 422.557,63.519C422.775,63.695 422.819,64.011 422.657,64.241L418.717,69.827C418.634,69.945 418.509,70.022 418.368,70.044C418.227,70.066 418.083,70.032 417.969,69.946C414.185,67.109 410.578,65.732 406.938,65.732C403.184,65.732 400.659,67.546 400.659,70.242C400.659,73.096 402.096,74.454 410.167,76.389ZM452.069,85.433C452.069,79.827 448.498,75.759 443.58,75.759C438.638,75.759 434.911,79.916 434.911,85.433C434.911,90.951 438.638,95.108 443.58,95.108C448.578,95.108 452.069,91.132 452.069,85.433ZM445.252,68.386C452.815,68.386 460.47,74.241 460.47,85.433C460.47,96.623 452.815,102.477 445.252,102.477C441.184,102.477 437.845,100.96 435.091,97.853L435.091,110.891C435.091,111.185 434.855,111.424 434.563,111.424L427.337,111.424C427.045,111.424 426.809,111.185 426.809,110.891L426.809,69.583C426.809,69.289 427.045,69.05 427.337,69.05L434.563,69.05C434.855,69.05 435.091,69.289 435.091,69.583L435.091,73.3C437.844,69.998 441.182,68.386 445.252,68.386ZM480.094,95.168C485.324,95.168 489.119,91.127 489.119,85.555C489.119,80.002 485.188,75.817 479.974,75.817C474.778,75.817 471.008,79.861 471.008,85.433C471.008,90.982 474.914,95.168 480.094,95.168ZM480.094,68.386C489.8,68.386 497.401,75.874 497.401,85.433C497.401,95.025 489.748,102.541 479.974,102.541C470.302,102.541 462.725,95.079 462.725,85.555C462.725,75.927 470.355,68.386 480.094,68.386ZM518.199,69.05C518.491,69.05 518.726,69.289 518.726,69.583L518.726,75.828C518.726,76.121 518.491,76.36 518.199,76.36L510.247,76.36L510.247,91.38C510.247,93.753 511.282,94.811 513.6,94.811C515.104,94.811 516.45,94.486 517.842,93.781C518.003,93.701 518.199,93.706 518.356,93.805C518.512,93.902 518.608,94.075 518.608,94.258L518.608,100.205C518.608,100.395 518.505,100.573 518.34,100.666C516.314,101.822 514.163,102.36 511.571,102.36C505.196,102.36 501.964,99.049 501.964,92.519L501.964,76.36L498.49,76.36C498.198,76.36 497.963,76.121 497.963,75.828L497.963,69.583C497.963,69.289 498.198,69.05 498.49,69.05L501.964,69.05L501.964,60.875C501.964,60.582 502.202,60.343 502.494,60.343L509.72,60.343C510.012,60.343 510.247,60.582 510.247,60.875L510.247,69.05L518.199,69.05ZM545.904,69.082L558.248,69.082C558.468,69.082 558.665,69.218 558.742,69.425L567.183,91.573L574.889,69.439C574.963,69.226 575.165,69.082 575.39,69.082L582.912,69.082C583.088,69.082 583.248,69.169 583.347,69.313C583.447,69.459 583.465,69.643 583.403,69.807L570.866,102.382C568.266,109.105 565.317,111.605 559.981,111.605C557.129,111.605 554.82,111.011 552.263,109.618C552.019,109.486 551.919,109.186 552.036,108.931L554.485,103.528C554.544,103.393 554.66,103.29 554.798,103.24C554.937,103.197 555.09,103.209 555.219,103.28C556.59,104.035 557.93,104.417 559.203,104.417C560.778,104.417 561.932,103.896 563.105,101.278L552.77,76.36L546.023,76.36L546.023,101.285C546.023,101.578 545.785,101.817 545.494,101.817L538.268,101.817C537.976,101.817 537.741,101.578 537.741,101.285L537.741,76.36L534.269,76.36C533.978,76.36 533.739,76.121 533.739,75.828L533.739,69.551C533.739,69.258 533.978,69.019 534.269,69.019L537.741,69.019L537.741,67.481C537.741,60.335 541.268,56.555 547.943,56.555C550.686,56.555 552.518,56.995 553.949,57.423C554.173,57.492 554.323,57.7 554.323,57.933L554.323,64.056C554.323,64.227 554.244,64.388 554.105,64.488C553.969,64.589 553.795,64.615 553.628,64.563C552.273,64.108 551.063,63.807 549.556,63.807C547.03,63.807 545.904,65.124 545.904,68.078L545.904,69.082ZM529.843,69.05C530.134,69.05 530.372,69.289 530.372,69.583L530.372,101.285C530.372,101.578 530.134,101.817 529.843,101.817L522.616,101.817C522.324,101.817 522.087,101.578 522.087,101.285L522.087,69.583C522.087,69.289 522.324,69.05 522.616,69.05L529.843,69.05ZM526.266,54.616C529.128,54.616 531.448,56.946 531.448,59.825C531.448,62.705 529.128,65.038 526.266,65.038C523.404,65.038 521.08,62.705 521.08,59.825C521.08,56.946 523.404,54.616 526.266,54.616ZM589.868,72.204L588.544,72.204L588.544,73.902L589.868,73.902C590.529,73.902 590.923,73.577 590.923,73.052C590.923,72.5 590.529,72.204 589.868,72.204ZM590.726,74.626L592.165,76.651L590.952,76.651L589.657,74.793L588.544,74.793L588.544,76.651L587.529,76.651L587.529,71.283L589.909,71.283C591.149,71.283 591.965,71.921 591.965,72.995C591.965,73.875 591.459,74.413 590.726,74.626ZM589.599,69.497C586.994,69.497 585.023,71.579 585.023,74.129C585.023,76.677 586.98,78.732 589.572,78.732C592.176,78.732 594.15,76.651 594.15,74.1C594.15,71.551 592.191,69.497 589.599,69.497ZM589.572,79.243C586.712,79.243 584.487,76.933 584.487,74.129C584.487,71.324 586.741,68.988 589.599,68.988C592.458,68.988 594.684,71.297 594.684,74.1C594.684,76.904 592.432,79.243 589.572,79.243Z" style="fill:rgb(30,215,96);"/>
                <path id="LISTEN-ON" d="M78.436,91.616L63,91.616L63,67.51L67.692,67.51L67.692,87.128L78.436,87.128L78.436,91.616ZM89.626,91.616L84.866,91.616L84.866,67.51L89.626,67.51L89.626,91.616ZM114.551,73.256L110.335,74.548C110.097,73.222 109.009,71.148 105.949,71.148C103.671,71.148 102.175,72.61 102.175,74.208C102.175,75.534 103.025,76.588 104.793,76.928L108.159,77.574C112.545,78.424 114.891,81.28 114.891,84.68C114.891,88.386 111.797,92.126 106.187,92.126C99.795,92.126 96.973,88.012 96.599,84.578L100.951,83.422C101.155,85.802 102.821,87.944 106.221,87.944C108.737,87.944 110.131,86.686 110.131,84.986C110.131,83.592 109.077,82.504 107.207,82.13L103.841,81.45C99.999,80.668 97.517,78.186 97.517,74.548C97.517,70.264 101.359,67 105.915,67C111.763,67 114.007,70.536 114.551,73.256ZM139.953,71.964L132.337,71.964L132.337,91.616L127.611,91.616L127.611,71.964L119.995,71.964L119.995,67.51L139.953,67.51L139.953,71.964ZM161.479,91.616L146.383,91.616L146.383,67.51L161.479,67.51L161.479,71.93L151.075,71.93L151.075,77.438L160.493,77.438L160.493,81.62L151.075,81.62L151.075,87.196L161.479,87.196L161.479,91.616ZM189.668,91.616L184.738,91.616L173.79,74.514L173.79,91.616L169.098,91.616L169.098,67.51L174.946,67.51L184.976,83.456L184.976,67.51L189.668,67.51L189.668,91.616ZM212.422,79.546C212.422,84.986 216.23,87.57 219.936,87.57C223.676,87.57 227.484,84.986 227.484,79.546C227.484,74.106 223.676,71.522 219.936,71.522C216.23,71.522 212.422,74.106 212.422,79.546ZM207.56,79.58C207.56,71.794 213.408,67 219.936,67C226.498,67 232.346,71.794 232.346,79.58C232.346,87.332 226.498,92.126 219.936,92.126C213.408,92.126 207.56,87.332 207.56,79.58ZM260.195,91.616L255.265,91.616L244.317,74.514L244.317,91.616L239.625,91.616L239.625,67.51L245.473,67.51L255.503,83.456L255.503,67.51L260.195,67.51L260.195,91.616Z" style="fill:white;"/>
            </g>
        </g>
    </g>
</svg>
